<svg xmlns="http://www.w3.org/2000/svg" xmlns:xlink="http://www.w3.org/1999/xlink" width="863" height="613" viewBox="0 0 863 613">
    <defs>
        <path id="a_browser" d="M8 0h846.064a8 8 0 0 1 8 8v599.804a8 8 0 0 1-8 8H8a8 8 0 0 1-8-8V8a8 8 0 0 1 8-8z"/>
        <linearGradient id="b_browser" x1="50%" x2="50%" y1="0%" y2="100%">
            <stop offset="0%" stop-color="#F7F6F7"/>
            <stop offset="100%" stop-color="#D7D5D7"/>
        </linearGradient>
        <path id="c_browser" d="M8 0h846.064a8 8 0 0 1 8 8v41.333H0V8a8 8 0 0 1 8-8z"/>
        <linearGradient id="f_browser" x1="50%" x2="50%" y1="0%" y2="100%">
            <stop offset="0%" stop-color="#FEFEFE"/>
            <stop offset="100%" stop-color="#F2F1F2"/>
        </linearGradient>
        <rect id="e_browser" width="573.333" height="29.333" rx="5.333"/>
        <filter id="d_browser" width="100.4%" height="111.4%" x="-.2%" y="-4%" filterUnits="objectBoundingBox">
            <feMorphology in="SourceAlpha" operator="dilate" radius=".667" result="shadowSpreadOuter1"/>
            <feOffset dy="1" in="shadowSpreadOuter1" result="shadowOffsetOuter1"/>
            <feComposite in="shadowOffsetOuter1" in2="SourceAlpha" operator="out" result="shadowOffsetOuter1"/>
            <feColorMatrix in="shadowOffsetOuter1" values="0 0 0 0 0.650980392 0 0 0 0 0.643137255 0 0 0 0 0.650980392 0 0 0 1 0"/>
        </filter>
        <circle id="g_browser" cx="82.579" cy="25.333" r="8"/>
        <circle id="h_browser" cx="55.912" cy="25.333" r="8"/>
        <circle id="i_browser" cx="29.246" cy="25.333" r="8"/>
    </defs>
    <g fill="none" fill-rule="evenodd">
        <g>
            <use fill="#FFF" xlink:href="#a_browser"/>
            <path stroke="#D2D2D2" stroke-width="2" d="M8 1a7 7 0 0 0-7 7v599.804a7 7 0 0 0 7 7h846.064a7 7 0 0 0 7-7V8a7 7 0 0 0-7-7H8z"/>
        </g>
        <g>
            <use fill="url(#b_browser)" xlink:href="#c_browser"/>
            <path stroke="#C1C1C1" stroke-width=".667" d="M.333 49h861.398V8a7.667 7.667 0 0 0-7.667-7.667H8A7.667 7.667 0 0 0 .333 8v41z"/>
        </g>
        <path fill="#BCBABC" d="M830.064 17.333h32v32h-32z"/>
        <path fill="#6B696B" d="M846.064 26.667h1.333v6.666h6.667v1.334h-6.667v6.666h-1.333v-6.666h-6.667v-1.334c4.45-.042 6.671-.042 6.667 0-.002.002-.002-2.22 0-6.666z"/>
        <g transform="translate(144.365 9.333)">
            <use fill="#000" filter="url(#d_browser)" xlink:href="#e_browser"/>
            <use fill="url(#f_browser)" xlink:href="#e_browser"/>
            <rect width="574" height="30" x="-.333" y="-.333" stroke="#D2D0D2" stroke-width=".667" rx="5.333"/>
        </g>
        <text fill="#0C0A00" font-family="SFUIDisplay-Regular, SF UI Display" font-size="17.333" transform="translate(144.365 9.333)">
            <tspan x="236.461" y="21">slotnslot.com</tspan>
        </text>
        <path fill="#999" fill-rule="nonzero" d="M699.13 16.326a8.3 8.3 0 0 0-5.539 2.428c-3.249 3.25-3.249 8.536 0 11.786 3.25 3.249 8.536 3.249 11.785 0a8.306 8.306 0 0 0 2.437-5.882h-2.332a5.981 5.981 0 0 1-1.755 4.232 6.007 6.007 0 0 1-8.485 0 6.007 6.007 0 0 1 0-8.486 5.975 5.975 0 0 1 3.89-1.743v2.804l2.44-2.441 1.566-1.566-.54-.54-3.467-3.467v2.875z"/>
        <g>
            <use fill="#909095" xlink:href="#g_browser"/>
            <circle cx="82.579" cy="25.333" r="7.667" stroke="#6E6E71" stroke-width=".667"/>
        </g>
        <g>
            <use fill="#909095" xlink:href="#h_browser"/>
            <circle cx="55.912" cy="25.333" r="7.667" stroke="#6E6E71" stroke-width=".667"/>
        </g>
        <g>
            <use fill="#909095" xlink:href="#i_browser"/>
            <circle cx="29.246" cy="25.333" r="7.667" stroke="#6E6E71" stroke-width=".667"/>
        </g>
    </g>
</svg>
