<svg xmlns="http://www.w3.org/2000/svg" xmlns:xlink="http://www.w3.org/1999/xlink" width="1728" height="778" viewBox="0 0 1728 778">
    <defs>
        <path id="b" d="M1566 542.599v48.545c0 13.728-11.128 24.856-24.856 24.856h-341.78c-.297-34.41-30.698-62.219-68.158-62.219s-67.861 27.81-68.158 62.219H24.856C11.128 616 0 604.872 0 591.144V542.6c.414.01.829.015 1.245.015 25.437 0 46.059-18.42 46.059-41.141 0-22.722-20.622-41.14-46.06-41.14-.415 0-.83.004-1.244.014v-40.058c.414.01.829.014 1.245.014 25.437 0 46.059-18.42 46.059-41.14 0-22.722-20.622-41.141-46.06-41.141-.415 0-.83.005-1.244.014v-40.058c.414.01.829.015 1.245.015 25.437 0 46.059-18.42 46.059-41.141 0-22.721-20.622-41.14-46.06-41.14-.415 0-.83.004-1.244.014v-40.058c.414.01.829.014 1.245.014 25.437 0 46.059-18.42 46.059-41.14 0-22.722-20.622-41.141-46.06-41.141-.415 0-.83.005-1.244.014v-68.56C0 11.129 11.128 0 24.856 0h1038.192l-.002.508c0 34.643 30.516 62.727 68.16 62.727s68.16-28.084 68.16-62.727c0-.17 0-.339-.002-.508h341.78C1554.872 0 1566 11.128 1566 24.856v68.56c-24.862.589-44.814 18.776-44.814 41.126 0 22.35 19.952 40.536 44.814 41.126v40.058c-24.862.59-44.814 18.776-44.814 41.126 0 22.35 19.952 40.537 44.814 41.126v40.058c-24.862.59-44.814 18.777-44.814 41.126 0 22.35 19.952 40.537 44.814 41.127v40.058c-24.862.59-44.814 18.776-44.814 41.126 0 22.35 19.952 40.537 44.814 41.126z"/>
        <filter id="a" width="117.7%" height="146.8%" x="-8.8%" y="-19.3%" filterUnits="objectBoundingBox">
            <feOffset dy="31" in="SourceAlpha" result="shadowOffsetOuter1"/>
            <feGaussianBlur in="shadowOffsetOuter1" result="shadowBlurOuter1" stdDeviation="41"/>
            <feColorMatrix in="shadowBlurOuter1" values="0 0 0 0 0.386917526 0 0 0 0 0.384578506 0 0 0 0 0.548309949 0 0 0 0.215777853 0"/>
        </filter>
    </defs>
    <g fill="none" fill-rule="evenodd" transform="translate(81 50)">
        <use fill="#000" filter="url(#a)" xlink:href="#b"/>
        <use fill="#FFF" xlink:href="#b"/>
    </g>
</svg>
