<svg xmlns="http://www.w3.org/2000/svg" width="80" height="81" viewBox="0 0 80 81">
    <g fill="none" fill-rule="evenodd">
        <ellipse cx="39.952" cy="40.07" fill="#4D4C61" rx="39.952" ry="40.07"/>
        <path fill="#FFF" fill-rule="nonzero" d="M50.453 55.372S49.114 53.77 48 52.352c4.871-1.379 6.73-4.435 6.73-4.435a21.232 21.232 0 0 1-4.276 2.199c-1.86.783-3.644 1.305-5.392 1.603-3.57.67-6.842.485-9.63-.037a31.178 31.178 0 0 1-5.467-1.603 21.793 21.793 0 0 1-2.714-1.268c-.112-.074-.223-.111-.335-.186a.514.514 0 0 1-.149-.112c-.669-.372-1.04-.633-1.04-.633s1.784 2.982 6.507 4.398a234.836 234.836 0 0 1-2.492 3.094c-8.218-.26-11.341-5.666-11.341-5.666 0-12.003 5.355-21.732 5.355-21.732 5.354-4.026 10.448-3.914 10.448-3.914l.372.447c-6.693 1.938-9.78 4.883-9.78 4.883s.819-.447 2.194-1.08c3.98-1.753 7.14-2.237 8.442-2.35.223-.037.409-.074.632-.074a31.386 31.386 0 0 1 7.511-.074 30.258 30.258 0 0 1 11.192 3.578s-2.937-2.795-9.258-4.734l.52-.596s5.094-.112 10.449 3.914c0 0 5.355 9.73 5.355 21.732 0 0-3.161 5.405-11.379 5.666zm-17.29-17.408c-2.12 0-3.793 1.864-3.793 4.138s1.71 4.137 3.792 4.137c2.12 0 3.793-1.863 3.793-4.137.037-2.274-1.673-4.138-3.793-4.138zm13.572 0c-2.12 0-3.793 1.864-3.793 4.138s1.71 4.137 3.793 4.137c2.12 0 3.792-1.863 3.792-4.137 0-2.274-1.673-4.138-3.792-4.138z"/>
    </g>
</svg>
