<svg xmlns="http://www.w3.org/2000/svg" width="100" height="100" viewBox="0 0 100 100">
    <g fill="none" fill-rule="evenodd">
        <ellipse cx="49.94" cy="49.964" fill="#C2C2C2" rx="49.94" ry="49.964"/>
        <path fill="#FFF" fill-rule="nonzero" d="M63.066 69.045s-1.673-2-3.067-3.766c6.089-1.72 8.413-5.53 8.413-5.53-1.906 1.254-3.719 2.138-5.346 2.741-2.324.977-4.555 1.627-6.74 2-4.462.836-8.552.603-12.038-.047a39.046 39.046 0 0 1-6.832-1.999 27.273 27.273 0 0 1-3.394-1.58c-.14-.093-.279-.14-.418-.233a.642.642 0 0 1-.186-.139c-.837-.465-1.301-.79-1.301-.79s2.23 3.718 8.134 5.484c-1.394 1.767-3.114 3.858-3.114 3.858C26.904 68.72 23 61.98 23 61.98c0-14.967 6.693-27.098 6.693-27.098C36.386 29.86 42.754 30 42.754 30l.465.557c-8.366 2.417-12.224 6.09-12.224 6.09s1.022-.558 2.742-1.349c4.973-2.184 8.924-2.788 10.551-2.928.279-.047.511-.093.79-.093a39.329 39.329 0 0 1 9.39-.093 37.89 37.89 0 0 1 13.99 4.462s-3.672-3.486-11.574-5.903l.651-.743s6.368-.14 13.061 4.88c0 0 6.694 12.131 6.694 27.098 0 0-3.951 6.74-14.224 7.065zM41.453 47.338c-2.65 0-4.74 2.324-4.74 5.159s2.137 5.16 4.74 5.16c2.65 0 4.74-2.325 4.74-5.16.047-2.835-2.09-5.16-4.74-5.16zm16.965 0c-2.65 0-4.74 2.324-4.74 5.159s2.138 5.16 4.74 5.16c2.65 0 4.741-2.325 4.741-5.16s-2.091-5.16-4.74-5.16z"/>
    </g>
</svg>
