<svg xmlns="http://www.w3.org/2000/svg" width="51" height="52" viewBox="0 0 51 52">
    <g fill="none" fill-rule="evenodd" transform="translate(.234)">
        <ellipse cx="25.314" cy="25.667" fill="#C2C2C2" rx="25.314" ry="25.667"/>
        <g fill="#FFF">
            <path d="M26.188 32.414c-.302.306-.544.455-.739.455-.195 0-.437-.149-.739-.455a.486.486 0 0 0-.697 0 .504.504 0 0 0 0 .71c.489.498.962.746 1.436.746s.947-.248 1.436-.746a.506.506 0 0 0 0-.71.487.487 0 0 0-.697 0"/>
            <path d="M34.68 31.386c-.176.667-.397 1.228-.666 1.679a3.456 3.456 0 0 1-1.127 1.145 7.549 7.549 0 0 1-1.404.723c-.452.17-1.037.303-1.754.398-.716.095-1.358.154-1.925.174-.566.02-1.28.03-2.142.03-.861 0-1.574-.01-2.136-.03a20.342 20.342 0 0 1-1.918-.174c-.716-.095-1.301-.227-1.753-.398a7.53 7.53 0 0 1-1.404-.723 3.47 3.47 0 0 1-1.128-1.145c-.267-.451-.49-1.012-.666-1.679-.175-.668-.263-1.428-.263-2.282 0-1.456.527-2.776 1.582-3.96a3.16 3.16 0 0 1 1.1-.821 3.908 3.908 0 0 1 1.425-.316 12.85 12.85 0 0 1 1.522.014c.483.035 1.081.083 1.793.144.713.06 1.328.09 1.846.09.519 0 1.134-.03 1.845-.09.713-.06 1.311-.109 1.794-.144.483-.035.99-.04 1.522-.014.533.024 1.009.13 1.43.316.423.185.792.46 1.108.82 1.056 1.185 1.583 2.505 1.583 3.961 0 .854-.089 1.614-.265 2.282m1.8-11.679c.057-.278.112-.673.166-1.181.053-.509.032-1.097-.06-1.764a9.814 9.814 0 0 0-.521-2.04l-.198-.04c-.131-.027-.347-.018-.646.027a8.034 8.034 0 0 0-1.047.243c-.4.117-.916.35-1.55.696-.633.346-1.3.786-2.004 1.317a16.598 16.598 0 0 0-9.902 0 15.497 15.497 0 0 0-2.01-1.31c-.636-.342-1.146-.577-1.53-.703a5.254 5.254 0 0 0-1.061-.243c-.324-.036-.533-.047-.626-.034a.884.884 0 0 0-.204.047 10.117 10.117 0 0 0-.527 2.04c-.097.667-.12 1.252-.066 1.757.053.504.11.9.172 1.188.06.289.13.536.21.743-1.37 1.613-2.057 3.544-2.057 5.795 0 1.252.106 2.388.317 3.405.21 1.018.507 1.9.89 2.648a7.346 7.346 0 0 0 1.45 1.966 8.527 8.527 0 0 0 1.905 1.392c.685.365 1.47.659 2.354.885.883.224 1.781.382 2.695.472.915.09 1.921.136 3.02.136 1.098 0 2.107-.046 3.025-.136.92-.09 1.82-.248 2.703-.472.883-.226 1.67-.52 2.36-.885s1.33-.83 1.919-1.391a7.294 7.294 0 0 0 1.456-1.967c.382-.747.681-1.63.897-2.647.214-1.018.323-2.154.323-3.406 0-2.242-.686-4.174-2.057-5.795a5.25 5.25 0 0 0 .205-.743"/>
            <path d="M20.386 26.4c-.873 0-1.582 1.079-1.582 2.409 0 1.33.71 2.408 1.582 2.408.874 0 1.583-1.078 1.583-2.408 0-1.33-.71-2.409-1.583-2.409M29.789 26.4c-.874 0-1.582 1.079-1.582 2.409 0 1.33.708 2.408 1.582 2.408.873 0 1.582-1.078 1.582-2.408 0-1.33-.71-2.409-1.582-2.409"/>
        </g>
    </g>
</svg>
