<svg xmlns="http://www.w3.org/2000/svg" width="53" height="54" viewBox="0 0 53 54">
    <g fill="none" fill-rule="evenodd" transform="translate(0 .667)">
        <ellipse cx="26.439" cy="26.667" fill="#4D4C61" rx="26.439" ry="26.667"/>
        <g fill="#FFF">
            <path d="M27.352 33.677c-.316.318-.569.473-.772.473-.203 0-.456-.155-.772-.473a.509.509 0 0 0-.728 0 .522.522 0 0 0 0 .737c.51.518 1.005.776 1.5.776.495 0 .989-.258 1.5-.775a.524.524 0 0 0 0-.738.51.51 0 0 0-.728 0"/>
            <path d="M36.22 32.609c-.183.693-.414 1.275-.694 1.744a3.6 3.6 0 0 1-1.177 1.19 7.9 7.9 0 0 1-1.467.75c-.472.178-1.083.316-1.831.415a21.33 21.33 0 0 1-2.012.18c-.59.021-1.337.031-2.237.031-.899 0-1.643-.01-2.23-.03a21.355 21.355 0 0 1-2.004-.181c-.748-.1-1.358-.237-1.83-.414a7.88 7.88 0 0 1-1.467-.751 3.615 3.615 0 0 1-1.179-1.19c-.278-.469-.511-1.051-.694-1.744-.184-.694-.276-1.484-.276-2.371 0-1.512.552-2.885 1.653-4.115a3.3 3.3 0 0 1 1.15-.853 4.1 4.1 0 0 1 1.487-.328 13.492 13.492 0 0 1 1.59.015c.504.036 1.129.086 1.873.15a23.55 23.55 0 0 0 1.927.092c.542 0 1.185-.03 1.928-.093.744-.063 1.369-.113 1.873-.15.505-.035 1.035-.04 1.59-.014a4.15 4.15 0 0 1 1.494.328 3.28 3.28 0 0 1 1.157.853c1.102 1.23 1.653 2.603 1.653 4.115 0 .887-.093 1.677-.276 2.371m1.88-12.134c.06-.29.117-.7.172-1.227.056-.529.034-1.14-.063-1.833a10.153 10.153 0 0 0-.543-2.12l-.207-.04c-.137-.03-.363-.02-.675.027-.311.046-.676.13-1.094.252-.418.122-.956.363-1.618.724-.661.359-1.358.816-2.093 1.368a17.42 17.42 0 0 0-10.342 0 16.195 16.195 0 0 0-2.1-1.362c-.664-.355-1.197-.598-1.597-.73a5.512 5.512 0 0 0-1.109-.252c-.338-.038-.556-.05-.653-.035a.928.928 0 0 0-.213.049c-.266.72-.45 1.427-.551 2.12-.101.692-.124 1.3-.069 1.824.056.524.115.936.18 1.235.063.3.136.557.22.772-1.433 1.675-2.149 3.682-2.149 6.021 0 1.3.11 2.48.33 3.537.22 1.058.53 1.975.93 2.751A7.635 7.635 0 0 0 16.37 35.6a8.904 8.904 0 0 0 1.99 1.446c.716.379 1.536.685 2.459.92.922.233 1.86.397 2.815.49.956.094 2.007.14 3.154.14 1.147 0 2.2-.046 3.16-.14.96-.093 1.9-.257 2.822-.49.923-.235 1.745-.541 2.465-.92a8.993 8.993 0 0 0 2.005-1.445 7.58 7.58 0 0 0 1.52-2.044c.4-.776.712-1.693.937-2.75.224-1.058.338-2.237.338-3.538 0-2.33-.717-4.337-2.149-6.021.083-.224.154-.482.214-.772"/>
            <path d="M21.293 27.429c-.913 0-1.653 1.12-1.653 2.502 0 1.382.74 2.503 1.653 2.503.912 0 1.652-1.12 1.652-2.503 0-1.382-.74-2.502-1.652-2.502M31.113 27.429c-.913 0-1.653 1.12-1.653 2.502 0 1.382.74 2.503 1.653 2.503.912 0 1.652-1.12 1.652-2.503 0-1.382-.74-2.502-1.652-2.502"/>
        </g>
    </g>
</svg>
