<?xml version="1.0" encoding="UTF-8"?>
<svg width="99px" height="101px" viewBox="0 0 99 101" version="1.1" xmlns="http://www.w3.org/2000/svg" xmlns:xlink="http://www.w3.org/1999/xlink">
    <!-- Generator: Sketch 44.1 (41455) - http://www.bohemiancoding.com/sketch -->
    <title>hipchat</title>
    <desc>Created with Sketch.</desc>
    <defs></defs>
    <g id="Page-1" stroke="none" stroke-width="1" fill="none" fill-rule="evenodd">
        <g id="Zepline---HOME" transform="translate(-1625.000000, -1052.000000)">
            <g id="hipchat" transform="translate(1625.000000, 1052.000000)">
                <ellipse id="Oval-1-Copy-59" fill="#4D4C61" cx="49.4410509" cy="50.4635762" rx="49.4410509" ry="50.4635762"></ellipse>
                <g id="hip-chat" transform="translate(22.000000, 29.000000)" fill-rule="nonzero" fill="#FFFFFF">
                    <path d="M49.217683,3.33902748 C47.3305251,4.40119974 45.5396199,6.1989525 44.7195778,8.66262285 C44.5581463,9.14576891 44.7013884,9.53528201 45.078062,9.82292245 C50.5364198,13.9967051 53.9719565,20.0566301 53.9719565,26.8064426 C53.9719565,39.3929592 42.0123779,49.5982024 27.2599572,49.5982024 C12.5067786,49.5982024 0.545684197,39.3929592 0.545684197,26.8064426 C0.545684197,14.2131845 12.5067786,4.0064432 27.2599572,4.0064432 C29.1872835,4.0064432 31.0668624,4.18172409 32.8789887,4.51281022 C33.323115,4.5937091 33.6853886,4.49033831 33.9809676,4.3113121 C37.6370517,2.09258557 43.0810094,0.231162391 47.8557462,0.231162391 C49.3935146,0.231162391 49.9846724,1.19595637 49.9846724,2.07460804 M42.0684621,5.5540087 C42.1518305,5.44389634 42.1965463,5.35026339 42.1965463,5.24913979 C42.1965463,5.09558175 42.0495147,4.99071283 41.8653463,4.99071283 C40.5269042,4.99071283 36.4031991,7.18771652 34.2333465,8.99895243 C33.9354939,9.24614344 33.5201676,9.33678014 32.9297676,9.21018838 C31.119915,8.81992622 29.2206308,8.6101884 27.2591993,8.6101884 C14.9797891,8.6101884 5.02408408,16.7382781 5.02408408,26.7682404 C5.02408408,36.7937083 14.9797891,44.9202999 27.2591993,44.9202999 C39.5386095,44.9202999 49.4927988,36.7937083 49.4927988,26.7682404 C49.4927988,20.7832218 45.9481252,15.477604 40.4806727,12.1689898 C40.1146095,11.947267 39.7258095,11.5322857 39.7258095,11.0124355 C39.7258095,9.94427076 40.7398727,7.29782888 42.0684621,5.5540087" id="path102" transform="translate(27.258820, 24.914682) scale(1, -1) translate(-27.258820, -24.914682) "></path>
                    <path d="M41.6842098,34.7303369 C41.6834519,35.2838949 41.2302309,35.7805241 40.6208835,35.7805241 C40.3745677,35.7805241 40.1221888,35.6981271 39.9160414,35.5138575 C37.2247573,33.1228463 32.6447995,31.0074905 27.105347,30.9932583 L27.084126,30.9932583 C21.5545261,31.0074905 17.1056841,33.2067414 14.2734315,35.5138575 C14.0945684,35.6599249 13.7626105,35.7595503 13.5473684,35.7595503 C12.8895158,35.7595503 12.5060211,35.2052432 12.5052632,34.5955054 C12.5052632,34.1265916 12.8387368,33.7333332 13.1123368,33.3273407 C14.7001263,30.9692883 19.625684,26.9662921 27.0371365,26.9662921 L27.1530944,26.9662921 C34.5637889,26.9662921 39.4901046,30.9692883 41.0771361,33.3273407 C41.3507361,33.7333332 41.6842098,34.2599249 41.6842098,34.7303369" id="path98" transform="translate(27.094736, 31.373408) scale(1, -1) translate(-27.094736, -31.373408) "></path>
                </g>
            </g>
        </g>
    </g>
</svg>