<svg xmlns="http://www.w3.org/2000/svg" width="622" height="75" viewBox="0 0 622 75">
    <defs>
        <linearGradient id="make-slot-a" x1="50%" x2="50%" y1="0%" y2="97.1%">
            <stop offset="0%" stop-color="#E2E3EA"/>
            <stop offset="29.977%" stop-color="#FFFED4"/>
            <stop offset="46.376%" stop-color="#E6B242"/>
            <stop offset="68.237%" stop-color="#9E5F35"/>
            <stop offset="82.896%" stop-color="#E9A245"/>
            <stop offset="90.922%" stop-color="#E0905D"/>
            <stop offset="100%" stop-color="#FCCC0F"/>
        </linearGradient>
    </defs>
    <path fill="url(#make-slot-a)" fill-rule="evenodd" stroke="#000" d="M1132.764 294.74V366h12.623v-50.9l21.073 43.57h8.856l21.073-43.57.102 50.9h12.42v-71.26h-15.678l-22.294 45.708-22.396-45.708h-15.779zM1283.456 366l-6.312-15.066h-34.816L1236.017 366h-14.15l31.252-71.26h14.15l30.846 71.26h-14.66zm-36.241-26.773h25.043l-12.42-29.93-12.623 29.93zM1374.695 366l-29.114-41.127 27.18-30.133h-15.88l-32.27 34.816V294.74h-13.642V366h13.641v-17.917l11.402-12.623 22.192 30.54h16.492zm14.382-71.26V366h53.445v-11.91h-39.804v-17.917h34.612v-11.911h-34.612v-17.611h38.583V294.74h-52.224zm146.036 18.731l5.497-11.809c-6.82-4.479-16.288-7.533-25.755-7.533-15.983 0-26.672 7.94-26.672 20.36 0 25.348 38.277 16.899 38.277 31.762 0 4.988-4.58 7.838-12.216 7.838-7.635 0-17.306-3.97-24.635-10.485l-5.701 11.503c7.635 6.821 18.731 11.402 30.133 11.402 15.677 0 27.282-7.737 27.282-21.073.102-25.551-38.175-17.713-38.175-32.168 0-4.378 4.174-6.72 10.587-6.72 5.497 0 13.743 2.342 21.378 6.923zm23.34-18.731V366h44.385v-12.318h-30.744V294.74h-13.641zm91.647-.407c21.48 0 37.972 15.575 37.972 36.037s-16.492 36.24-37.972 36.24-37.971-15.778-37.971-36.24c0-20.564 16.492-36.037 37.971-36.037zm.204 12.216c-13.234 0-24.228 10.383-24.228 23.821 0 13.438 11.096 24.025 24.228 24.025 13.03 0 23.821-10.587 23.821-24.025 0-13.438-10.79-23.821-23.821-23.821zm44.412-11.809v12.114h22.193V366h13.743v-59.146h22.192V294.74h-58.128z" transform="translate(-1132 -293)"/>
</svg>
