<svg xmlns="http://www.w3.org/2000/svg" width="100" height="100" viewBox="0 0 100 100">
    <g fill="none" fill-rule="evenodd">
        <circle cx="50" cy="50" r="50" fill="#4D4C61"/>
        <path fill="#FFF" d="M72.862 37.953a.165.165 0 0 1 .042.216L59.262 60.286l-9.807-15.9 7.815-12.672c.28-.454.797-.714 1.317-.714.126 0 .25.02.373.05.098.026.194.056.286.102l13.575 6.772.015.008c.01.005.018.014.026.021zM45.15 41.499L58 62.333l-12.85-6.41V41.499zm25.358 27.074L59.93 63.296 73 42.106V67.5c0 1.28-1.116 1.76-2.492 1.074zm-27.589-30.6c.05.025.081.076.081.13V67.5c0 .94-.509 1.501-1.235 1.501-.257 0-.542-.07-.842-.22l-11.677-5.825C28.561 62.613 28 61.708 28 60.943V32.384c0-.752.407-1.2.988-1.2.206 0 .434.056.673.176l13.258 6.614z"/>
    </g>
</svg>
