<svg xmlns="http://www.w3.org/2000/svg" width="54" height="54" viewBox="0 0 54 54">
    <g fill="none" fill-rule="evenodd" transform="translate(.667 .667)">
        <ellipse cx="26.439" cy="26.667" fill="#4D4C61" rx="26.439" ry="26.667"/>
        <g fill="#FFF">
            <path d="M31.868 26.667a1.65 1.65 0 1 0 0 3.3 1.651 1.651 0 0 0 0-3.3"/>
            <path d="M37.346 26.67c-.53-.828-1.245-1.583-2.109-2.237a1.654 1.654 0 0 1 3.146.706c0 .692-.43 1.286-1.037 1.53m-10.53 9.71c-5.304 0-9.604-2.817-9.604-6.29 0-3.474 4.3-6.291 9.604-6.291 5.305 0 9.605 2.817 9.605 6.291 0 3.473-4.3 6.29-9.605 6.29M15.25 25.14a1.653 1.653 0 0 1 3.145-.706c-.862.654-1.578 1.409-2.107 2.236a1.65 1.65 0 0 1-1.038-1.53m20.656-8.354a.928.928 0 1 1 .002 1.857.928.928 0 0 1-.002-1.857m.826 5.053a3.303 3.303 0 0 0-2.888 1.697c-1.699-.928-3.769-1.527-6.023-1.665l1.972-4.423 3.774 1.088a2.48 2.48 0 0 0 4.817-.822 2.476 2.476 0 0 0-2.478-2.475c-.944 0-1.765.527-2.184 1.302l-4.207-1.212a.982.982 0 0 0-1.168.542l-2.678 6.008c-2.199.155-4.216.75-5.878 1.657a3.305 3.305 0 0 0-2.888-1.697 3.3 3.3 0 1 0-1.333 6.32 6.02 6.02 0 0 0-.32 1.931c0 4.556 5.179 8.25 11.567 8.25s11.567-3.694 11.567-8.25c0-.665-.11-1.312-.32-1.93a3.302 3.302 0 0 0 1.973-3.02c0-1.823-1.48-3.3-3.305-3.3"/>
            <path d="M23.7 28.317c0-.912-.74-1.65-1.652-1.65a1.65 1.65 0 1 0 0 3.3c.912 0 1.652-.74 1.652-1.65M30.265 32.21c-.682.537-2.032 1.115-3.385 1.115-1.353 0-2.703-.578-3.385-1.115a.982.982 0 0 0-1.378.163.979.979 0 0 0 .162 1.376c1.186.932 2.991 1.535 4.6 1.535 1.61 0 3.415-.603 4.6-1.535a.98.98 0 1 0-1.214-1.539"/>
        </g>
    </g>
</svg>
