<svg xmlns="http://www.w3.org/2000/svg" width="52" height="52" viewBox="0 0 52 52">
    <g fill="none" fill-rule="evenodd" transform="translate(.723)">
        <ellipse cx="25.314" cy="25.667" fill="#C2C2C2" rx="25.314" ry="25.667"/>
        <g fill="#FFF">
            <path d="M30.512 25.667c-.875 0-1.582.71-1.582 1.588 0 .877.707 1.588 1.582 1.588.873 0 1.582-.711 1.582-1.588 0-.877-.709-1.588-1.582-1.588"/>
            <path d="M35.756 25.67c-.506-.797-1.192-1.524-2.018-2.153.254-.537.8-.91 1.43-.91a1.587 1.587 0 0 1 .588 3.062m-10.08 9.347c-5.08 0-9.197-2.712-9.197-6.055 0-3.344 4.117-6.055 9.196-6.055 5.08 0 9.196 2.71 9.196 6.055 0 3.343-4.117 6.055-9.196 6.055M14.6 24.196a1.58 1.58 0 1 1 3.011-.679c-.825.629-1.51 1.356-2.017 2.152a1.589 1.589 0 0 1-.994-1.473m19.777-8.04c.491 0 .89.399.89.893a.892.892 0 0 1-.89.893c-.492 0-.89-.4-.89-.893 0-.494.398-.893.89-.893m.79 4.863a3.16 3.16 0 0 0-2.764 1.633c-1.627-.893-3.608-1.47-5.767-1.602l1.888-4.257 3.614 1.047a2.375 2.375 0 0 0 2.239 1.591 2.378 2.378 0 0 0 2.373-2.382 2.371 2.371 0 1 0-4.464-1.13l-4.027-1.166a.94.94 0 0 0-1.119.522l-2.564 5.783c-2.105.149-4.036.72-5.628 1.594a3.161 3.161 0 0 0-2.765-1.633 3.17 3.17 0 0 0-3.165 3.177c0 1.298.777 2.413 1.889 2.906a5.822 5.822 0 0 0-.307 1.859c0 4.385 4.959 7.94 11.075 7.94s11.075-3.555 11.075-7.94c0-.64-.106-1.263-.306-1.859a3.18 3.18 0 0 0 1.888-2.906 3.17 3.17 0 0 0-3.164-3.177"/>
            <path d="M22.692 27.255c0-.878-.709-1.588-1.582-1.588-.875 0-1.582.71-1.582 1.588 0 .877.707 1.588 1.582 1.588.873 0 1.582-.711 1.582-1.588M28.977 31.002c-.653.517-1.945 1.073-3.241 1.073-1.295 0-2.588-.556-3.24-1.073a.937.937 0 0 0-1.32.157.945.945 0 0 0 .155 1.324c1.136.897 2.864 1.478 4.405 1.478 1.54 0 3.27-.58 4.404-1.478a.946.946 0 0 0 .157-1.324.939.939 0 0 0-1.32-.157"/>
        </g>
    </g>
</svg>
