<svg xmlns="http://www.w3.org/2000/svg" xmlns:xlink="http://www.w3.org/1999/xlink" width="436" height="746" viewBox="0 0 436 746">
    <defs>
        <linearGradient id="a_s_8_frame" x1="2.429%" y1="50%" y2="50%">
            <stop offset="0%" stop-color="#212121"/>
            <stop offset="100%" stop-color="#191919"/>
        </linearGradient>
        <ellipse id="b_s_8_frame" cx="328.842" cy="22.25" rx="4.546" ry="4.546"/>
        <ellipse id="c_s_8_frame" cx="119.463" cy="22.25" rx="3.693" ry="3.693"/>
        <ellipse id="d_s_8_frame" cx="61.366" cy="22.392" rx="2.699" ry="2.699"/>
        <ellipse id="e_s_8_frame" cx="287.506" cy="22.108" rx="6.108" ry="6.108"/>
        <ellipse id="f_s_8_frame" cx="90.627" cy="22.108" rx="6.108" ry="6.108"/>
        <linearGradient id="g_s_8_frame" x1="100%" x2="0%" y1="50%" y2="50%">
            <stop offset="0%" stop-color="#FFF" stop-opacity="0"/>
            <stop offset="100%" stop-color="#FFF" stop-opacity=".55"/>
        </linearGradient>
    </defs>
    <g fill="none" fill-rule="evenodd">
        <g fill="url(#a_s_8_frame)" transform="translate(.667 153.214)">
            <path d="M5.682.82H2.636A2.636 2.636 0 0 0 0 3.456v117.462a2.636 2.636 0 0 0 2.636 2.636h3.046V.82zM5.682 171.852H2.636A2.636 2.636 0 0 0 0 174.488v52.686a2.636 2.636 0 0 0 2.636 2.636h3.046v-57.958zM428.985 123.554h3.046a2.636 2.636 0 0 1 2.636 2.636v52.686a2.636 2.636 0 0 1-2.636 2.636h-3.046v-57.958z"/>
        </g>
        <path fill="#333" d="M376.869.334c33.05 0 53.635 30.57 53.635 51.863v819.784c0 23.451-20.584 53.118-53.635 53.118H59.699c-33.05 0-53.635-30.093-53.635-53.118V53.451C6.064 30.051 26.65.334 59.7.334h317.169zM48.575 44.938c-20.681 0-33.562 16.69-33.562 27.939v781.95c0 11.249 12.88 27.94 33.562 27.94H387.74c20.682 0 33.562-16.691 33.562-27.94V72.878c0-11.248-12.88-27.94-33.562-27.94H48.575z"/>
        <path fill="#1A1A1A" d="M375.105 6.868c32.387 0 52.558 26.138 52.558 43.752v823.34c0 17.614-20.171 43.752-52.558 43.752H61.463c-32.387 0-52.558-26.138-52.558-43.753V50.62c0-17.614 20.171-43.752 52.558-43.752h313.642zm-326.53 38.07c-20.681 0-33.562 16.69-33.562 27.939v781.95c0 11.249 12.88 27.94 33.562 27.94H387.74c20.682 0 33.562-16.691 33.562-27.94V72.878c0-11.248-12.88-27.94-33.562-27.94H48.575z"/>
        <g transform="translate(9.615 7.346)">
            <rect width="51.137" height="7.955" x="183.101" y="17.989" fill="#040307" rx="3.977"/>
            <use fill="#040307" xlink:href="#b_s_8_frame"/>
            <ellipse cx="328.842" cy="22.25" stroke="#14181C" stroke-width=".941" rx="5.016" ry="5.016"/>
            <use fill="#040307" xlink:href="#c_s_8_frame"/>
            <ellipse cx="119.463" cy="22.25" stroke="#14181C" stroke-width=".941" rx="4.164" ry="4.164"/>
            <use fill="#040307" xlink:href="#d_s_8_frame"/>
            <ellipse cx="61.366" cy="22.392" stroke="#14181C" stroke-width=".941" rx="3.17" ry="3.17"/>
            <g>
                <use fill="#040307" xlink:href="#e_s_8_frame"/>
                <ellipse cx="287.506" cy="22.108" stroke="#14181C" stroke-width="1.883" rx="7.049" ry="7.05"/>
            </g>
            <g>
                <use fill="#040307" xlink:href="#f_s_8_frame"/>
                <ellipse cx="90.627" cy="22.108" stroke="#14181C" stroke-width="1.883" rx="7.049" ry="7.05"/>
            </g>
            <g fill="url(#g_s_8_frame)" transform="translate(1.114 .317)">
                <path d="M15.904 869.795V25.165c0-7.87 4.372-17.213 11.535-24.868a50.509 50.509 0 0 0-13.71 9.453C5.712 17.508.733 27.48.733 35.775v823.41c0 8.295 4.98 18.268 12.994 26.026a50.508 50.508 0 0 0 13.711 9.452c-7.163-7.655-11.535-16.997-11.535-24.868M398.923 869.794V25.164c0-7.871-4.372-17.213-11.535-24.868A50.509 50.509 0 0 1 401.1 9.748c8.015 7.758 12.994 17.731 12.994 26.026v823.41c0 8.295-4.979 18.268-12.994 26.026a50.508 50.508 0 0 1-13.71 9.452c7.162-7.655 11.534-16.997 11.534-24.868"/>
            </g>
        </g>
    </g>
</svg>
