<svg xmlns="http://www.w3.org/2000/svg" width="52" height="52" viewBox="0 0 52 52">
    <g fill="none" fill-rule="evenodd" transform="translate(.936)">
        <ellipse cx="25.314" cy="25.667" fill="#C2C2C2" rx="25.314" ry="25.667"/>
        <path fill="#FFF" d="M31.566 21.433l1.542 4.812 2.272-.749a2.248 2.248 0 0 1 2.84 1.468c.386 1.201-.262 2.49-1.447 2.881l-2.271.748.761 2.378c.382 1.191-.347 2.48-1.544 2.83a2.248 2.248 0 0 1-2.743-1.418l-.762-2.377-4.747 1.564.762 2.377c.382 1.192-.348 2.48-1.545 2.83a2.248 2.248 0 0 1-2.743-1.418l-.762-2.377-2.346.773c-1.175.387-2.446-.352-2.79-1.566a2.293 2.293 0 0 1 1.397-2.78l2.346-.774-1.543-4.813-2.345.773c-1.176.387-2.447-.353-2.791-1.566a2.293 2.293 0 0 1 1.398-2.781l2.345-.773-.74-2.305c-.384-1.201.264-2.49 1.448-2.881a2.249 2.249 0 0 1 2.842 1.468l.738 2.304 4.746-1.564-.739-2.304c-.385-1.2.263-2.49 1.448-2.88a2.248 2.248 0 0 1 2.841 1.467s.29.902.738 2.304l2.272-.749a2.249 2.249 0 0 1 2.841 1.468c.385 1.201-.263 2.491-1.447 2.881l-2.272.749zm-4.288 1.413l-4.747 1.563 1.543 4.813 4.746-1.564-1.542-4.812z"/>
    </g>
</svg>
