<svg xmlns="http://www.w3.org/2000/svg" width="53" height="54" viewBox="0 0 53 54">
    <g fill="none" fill-rule="evenodd" style="mix-blend-mode:luminosity" transform="translate(0 .667)">
        <ellipse cx="26.439" cy="26.667" fill="#4D4C61" rx="26.439" ry="26.667"/>
        <path fill="#FFF" d="M32.969 22.268l1.61 5 2.373-.779a2.35 2.35 0 0 1 2.968 1.525 2.38 2.38 0 0 1-1.512 2.994l-2.373.777.796 2.47c.398 1.238-.364 2.577-1.614 2.94a2.35 2.35 0 0 1-2.864-1.473l-.796-2.47-4.958 1.626.795 2.47c.4 1.238-.363 2.577-1.613 2.94a2.35 2.35 0 0 1-2.865-1.473l-.795-2.47-2.45.803c-1.228.403-2.556-.366-2.916-1.627a2.38 2.38 0 0 1 1.46-2.89l2.45-.802-1.611-5-2.45.802c-1.227.402-2.555-.366-2.914-1.627a2.38 2.38 0 0 1 1.46-2.89l2.448-.802-.771-2.395a2.38 2.38 0 0 1 1.512-2.993 2.351 2.351 0 0 1 2.967 1.525l.772 2.394 4.956-1.625-.771-2.394a2.38 2.38 0 0 1 1.512-2.993 2.35 2.35 0 0 1 2.967 1.525l.771 2.394 2.373-.778a2.351 2.351 0 0 1 2.968 1.525 2.38 2.38 0 0 1-1.512 2.993l-2.373.778zm-4.48 1.468c-1.614.53-3.337 1.094-4.956 1.624l1.61 5 4.958-1.625-1.611-5z"/>
    </g>
</svg>
