<svg xmlns="http://www.w3.org/2000/svg" width="251" height="50" viewBox="0 0 251 50">
    <defs>
        <linearGradient id="a_slot_n_slot_logo_non_shadow" x1="0%" x2="89.28%" y1="0%" y2="100%">
            <stop offset="0%" stop-color="#851DC2"/>
            <stop offset="100%" stop-color="#51E9E7"/>
        </linearGradient>
    </defs>
    <path fill="url(#a_slot_n_slot_logo_non_shadow)" fill-rule="evenodd" d="M141.643 8.528c.109.62.191 1.048.246 1.285.054.237.082.555.082.956a7.308 7.308 0 0 1-.793 3.362c-.528 1.039-1.248 1.777-2.16 2.214a10.798 10.798 0 0 0-2.678-2.542 15.895 15.895 0 0 0-3.471-1.749 21.594 21.594 0 0 0-3.909-1.011 24.577 24.577 0 0 0-3.936-.328c-1.276 0-2.47.1-3.58.3-1.112.2-2.096.474-2.953.82-.856.347-1.53.775-2.022 1.285-.492.51-.738 1.093-.738 1.75.109.801.601 1.612 1.476 2.432.874.82 1.95 1.622 3.225 2.405a52.756 52.756 0 0 0 4.237 2.324c1.549.765 3.07 1.494 4.564 2.186a82.806 82.806 0 0 1 4.811 2.433c1.348.747 2.46 1.567 3.335 2.46a8.885 8.885 0 0 1 1.968 3.034c.437 1.13.656 2.496.656 4.1 0 1.859-.31 3.599-.93 5.22a12.136 12.136 0 0 1-2.706 4.237c-1.184 1.203-2.615 2.141-4.291 2.816-1.676.674-3.553 1.011-5.63 1.011-2.042 0-4.246-.31-6.615-.93a31.538 31.538 0 0 1-6.642-2.541c-2.06-1.075-3.772-2.315-5.139-3.718-1.367-1.403-2.05-2.888-2.05-4.455 0-.729.21-1.658.629-2.788.419-1.13 1.175-2.314 2.268-3.553.11 1.093.702 2.387 1.777 3.881 1.075 1.494 2.688 2.88 4.838 4.155 2.004 1.166 4.073 2.013 6.205 2.542 2.132.528 4.127.792 5.986.792 2.04 0 3.699-.255 4.974-.765 1.276-.51 2.278-1.12 3.007-1.831.729-.711 1.24-1.43 1.53-2.16.292-.729.456-1.312.493-1.749-.037-.729-.374-1.43-1.012-2.105-.637-.674-1.494-1.33-2.569-1.968a41.325 41.325 0 0 0-3.745-1.94 176.223 176.223 0 0 0-4.428-1.968c-2.296-1.02-4.273-1.977-5.931-2.87-1.658-.893-3.025-1.804-4.1-2.734-1.075-.929-1.859-1.904-2.35-2.924-.493-1.02-.739-2.187-.739-3.499 0-2.04.62-3.972 1.859-5.795 1.24-1.822 3.025-3.207 5.357-4.154a15.626 15.626 0 0 1 3.745-1.094 24.075 24.075 0 0 1 3.909-.328c2.405 0 4.756.328 7.052.984a52.408 52.408 0 0 1 6.888 2.515zm1.968 33.347c0-1.604.382-3.854 1.148-6.752.765-2.897 1.84-6.277 3.225-10.14 2.26-6.16 4.382-11.289 6.369-15.389 1.986-4.1 3.927-7.298 5.822-9.594.437.073.975.255 1.612.547.638.291 1.267.61 1.886.956.62.347 1.176.702 1.668 1.066.492.365.81.656.956.875a67.332 67.332 0 0 0-7.489 10.824c-2.15 3.863-4.118 8.291-5.904 13.284-1.53 4.3-2.697 8.173-3.499 11.617-.801 3.444-1.202 6.314-1.202 8.61v1.148c0 .145.018.291.054.437-.51-.073-.947-.2-1.312-.383-.364-.182-.601-.4-.71-.656-.073-.182-.274-.446-.602-.792a6.344 6.344 0 0 0-.874-.793c-.328-.219-.602-.793-.82-1.722-.219-.93-.328-1.977-.328-3.143zm19.188 5.412c-2.078-.219-3.736-1.13-4.975-2.734-1.24-1.603-1.859-3.644-1.859-6.122 0-1.458.219-2.97.656-4.538a21.84 21.84 0 0 1 1.859-4.564 25.633 25.633 0 0 1 2.843-4.182 20.703 20.703 0 0 1 3.553-3.39c2.004-1.494 3.881-2.241 5.63-2.241 1.167.62 2.315 1.913 3.445 3.881.182 0 .346-.009.492-.027.145-.018.31-.027.492-.027 1.931 0 2.897 1.713 2.897 5.138 0 2.296-.374 4.474-1.12 6.533a19.828 19.828 0 0 1-3.117 5.603 18.562 18.562 0 0 1-4.756 4.237 18.87 18.87 0 0 1-6.04 2.433zm2.788-17.22c-.62.838-1.203 1.749-1.75 2.733a26.076 26.076 0 0 0-1.421 2.98c-.4 1.002-.71 1.967-.93 2.897-.218.929-.327 1.758-.327 2.487 0 .875.145 1.713.437 2.515.292.801.62 1.257.984 1.366a11.923 11.923 0 0 0 4.51-2.05c1.367-1.002 2.551-2.25 3.553-3.744 1.003-1.495 1.786-3.19 2.351-5.084.565-1.895.847-3.918.847-6.068 0-.948-.054-1.695-.164-2.242a4.132 4.132 0 0 0-.546-1.421 11.781 11.781 0 0 0-4.292 2.296 22.357 22.357 0 0 0-3.252 3.335zm17.548-5.631c-.183-.219-.347-.683-.492-1.394-.146-.71-.219-1.321-.219-1.831a191.135 191.135 0 0 0 5.139.328 51.638 51.638 0 0 1 1.776-3.253 61.155 61.155 0 0 1 1.859-2.952 25.31 25.31 0 0 1 1.695-2.269c.528-.62.938-1.02 1.23-1.202.364 0 .829.063 1.394.191s1.139.292 1.722.492 1.111.41 1.585.629c.474.218.802.437.984.656a57.42 57.42 0 0 0-2.815 3.854 101.97 101.97 0 0 0-2.542 4.072c.729 0 1.467-.018 2.214-.054a49.228 49.228 0 0 0 2.268-.164c.183.182.328.41.438.683.109.273.164.556.164.847-1.786.656-3.955 1.02-6.506 1.094a63.575 63.575 0 0 0-2.432 5.22 58.013 58.013 0 0 0-1.804 5.002 43.619 43.619 0 0 0-1.148 4.538c-.274 1.421-.41 2.697-.41 3.826 0 1.604.601 2.497 1.804 2.679a12.656 12.656 0 0 0 3.116-.82c.984-.4 1.858-.911 2.624-1.53.218.327.346.6.382.82-.218.327-.592.71-1.12 1.147-.529.438-1.103.866-1.722 1.285-.62.42-1.221.774-1.804 1.066-.583.292-1.02.456-1.312.492a8.208 8.208 0 0 1-2.734-.601c-.91-.365-1.74-.82-2.487-1.367-.747-.547-1.358-1.157-1.831-1.831-.474-.675-.711-1.34-.711-1.996 0-.874.118-1.977.355-3.307.237-1.33.574-2.779 1.012-4.346a92.242 92.242 0 0 1 1.53-4.92 85.43 85.43 0 0 1 1.914-5.084h-3.116zm34.112 25.092c-2.078-.62-3.48-1.212-4.21-1.777-.729-.565-1.093-1.339-1.093-2.323 0-1.093.255-2.633.765-4.62.51-1.986 1.176-4.2 1.996-6.641.82-2.442 1.758-4.993 2.815-7.654a193.987 193.987 0 0 1 3.225-7.653 139.63 139.63 0 0 1 3.198-6.697c1.039-2.022 1.96-3.599 2.761-4.728l-.383-2.296c.51 0 1.221.127 2.132.382a28.93 28.93 0 0 1 2.761.93c.93.364 1.75.738 2.46 1.12.71.383 1.102.702 1.175.957-.182.875-.328 2.196-.437 3.963a91.882 91.882 0 0 0-.164 5.658c0 3.973.155 7.863.465 11.672.31 3.808 1.03 7.68 2.159 11.616a285.556 285.556 0 0 1 1.886-8.719 211.738 211.738 0 0 1 2.105-8.31 179.601 179.601 0 0 1 2.186-7.352c.73-2.26 1.43-4.237 2.105-5.931.674-1.695 1.303-3.025 1.886-3.991.583-.966 1.112-1.485 1.585-1.558.401.073.839.228 1.312.465.474.237.93.519 1.367.847.437.328.838.692 1.203 1.093.364.401.656.802.874 1.203-1.166.474-2.323 1.585-3.471 3.335-1.148 1.749-2.241 3.872-3.28 6.368a89 89 0 0 0-2.897 8.118 142.044 142.044 0 0 0-2.351 8.61c-.674 2.825-1.203 5.44-1.585 7.845-.383 2.405-.593 4.337-.629 5.795 0 .073.018.127.055.164-.11.036-.228.054-.356.054h-.355c-1.676 0-3.162-.21-4.455-.628-1.294-.42-2.141-1.012-2.542-1.777a134.646 134.646 0 0 1-1.914-8.856c-.51-2.843-.938-5.685-1.284-8.528a165.92 165.92 0 0 1-.82-8.61c-.2-2.897-.356-5.931-.465-9.102-.692 1.093-1.421 2.524-2.187 4.291a81.817 81.817 0 0 0-2.241 5.822 138.197 138.197 0 0 0-2.105 6.67 126.636 126.636 0 0 0-1.776 6.833 80.727 80.727 0 0 0-1.203 6.314c-.292 1.986-.437 3.708-.437 5.166 0 .765.009 1.312.027 1.64.018.328.064.601.137.82zm81.125-41c.11.62.191 1.048.246 1.285.055.237.082.555.082.956a7.308 7.308 0 0 1-.793 3.362c-.528 1.039-1.248 1.777-2.159 2.214a10.798 10.798 0 0 0-2.679-2.542 15.895 15.895 0 0 0-3.471-1.749 21.594 21.594 0 0 0-3.909-1.011 24.577 24.577 0 0 0-3.936-.328c-1.275 0-2.469.1-3.58.3-1.112.2-2.096.474-2.952.82-.857.347-1.531.775-2.023 1.285-.492.51-.738 1.093-.738 1.75.11.801.601 1.612 1.476 2.432.875.82 1.95 1.622 3.225 2.405a52.756 52.756 0 0 0 4.237 2.324c1.549.765 3.07 1.494 4.565 2.186a82.806 82.806 0 0 1 4.81 2.433c1.349.747 2.46 1.567 3.335 2.46a8.885 8.885 0 0 1 1.968 3.034c.437 1.13.656 2.496.656 4.1 0 1.859-.31 3.599-.93 5.22a12.136 12.136 0 0 1-2.705 4.237c-1.185 1.203-2.615 2.141-4.292 2.816-1.676.674-3.553 1.011-5.63 1.011-2.041 0-4.246-.31-6.615-.93a31.538 31.538 0 0 1-6.642-2.541c-2.06-1.075-3.772-2.315-5.139-3.718-1.366-1.403-2.05-2.888-2.05-4.455 0-.729.21-1.658.629-2.788.42-1.13 1.175-2.314 2.269-3.553.109 1.093.701 2.387 1.776 3.881 1.075 1.494 2.688 2.88 4.838 4.155 2.005 1.166 4.073 2.013 6.205 2.542 2.132.528 4.127.792 5.986.792 2.04 0 3.7-.255 4.975-.765 1.275-.51 2.277-1.12 3.006-1.831.73-.711 1.24-1.43 1.531-2.16.292-.729.456-1.312.492-1.749-.036-.729-.374-1.43-1.011-2.105-.638-.674-1.495-1.33-2.57-1.968a41.325 41.325 0 0 0-3.744-1.94 176.226 176.226 0 0 0-4.428-1.968c-2.296-1.02-4.273-1.977-5.932-2.87-1.658-.893-3.025-1.804-4.1-2.734-1.075-.929-1.858-1.904-2.35-2.924s-.738-2.187-.738-3.499c0-2.04.62-3.972 1.858-5.795 1.24-1.822 3.025-3.207 5.358-4.154a15.626 15.626 0 0 1 3.744-1.094 24.075 24.075 0 0 1 3.909-.328c2.405 0 4.756.328 7.052.984a52.408 52.408 0 0 1 6.888 2.515zm1.968 33.347c0-1.604.383-3.854 1.148-6.752.765-2.897 1.84-6.277 3.225-10.14 2.26-6.16 4.383-11.289 6.369-15.389 1.986-4.1 3.927-7.298 5.822-9.594.437.073.975.255 1.613.547.637.291 1.266.61 1.886.956.62.347 1.175.702 1.667 1.066.492.365.81.656.957.875a67.332 67.332 0 0 0-7.49 10.824c-2.15 3.863-4.118 8.291-5.904 13.284-1.53 4.3-2.697 8.173-3.498 11.617-.802 3.444-1.203 6.314-1.203 8.61v1.148c0 .145.018.291.055.437-.51-.073-.948-.2-1.312-.383-.365-.182-.602-.4-.711-.656-.073-.182-.273-.446-.601-.792a6.344 6.344 0 0 0-.875-.793c-.328-.219-.601-.793-.82-1.722-.219-.93-.328-1.977-.328-3.143zm19.188 5.412c-2.077-.219-3.736-1.13-4.975-2.734-1.239-1.603-1.858-3.644-1.858-6.122 0-1.458.218-2.97.656-4.538a21.84 21.84 0 0 1 1.858-4.564 25.633 25.633 0 0 1 2.843-4.182 20.703 20.703 0 0 1 3.553-3.39c2.005-1.494 3.882-2.241 5.631-2.241 1.166.62 2.314 1.913 3.444 3.881.182 0 .346-.009.492-.027.146-.018.31-.027.492-.027 1.932 0 2.897 1.713 2.897 5.138 0 2.296-.373 4.474-1.12 6.533a19.828 19.828 0 0 1-3.116 5.603 18.562 18.562 0 0 1-4.756 4.237 18.87 18.87 0 0 1-6.041 2.433zm2.788-17.22c-.62.838-1.203 1.749-1.75 2.733a26.076 26.076 0 0 0-1.42 2.98c-.402 1.002-.711 1.967-.93 2.897-.219.929-.328 1.758-.328 2.487 0 .875.146 1.713.437 2.515.292.801.62 1.257.984 1.366a11.923 11.923 0 0 0 4.51-2.05c1.367-1.002 2.551-2.25 3.554-3.744 1.002-1.495 1.785-3.19 2.35-5.084.565-1.895.848-3.918.848-6.068 0-.948-.055-1.695-.164-2.242a4.132 4.132 0 0 0-.547-1.421 11.781 11.781 0 0 0-4.291 2.296 22.357 22.357 0 0 0-3.253 3.335zm17.548-5.631c-.182-.219-.346-.683-.492-1.394-.146-.71-.219-1.321-.219-1.831a191.136 191.136 0 0 0 5.139.328 51.638 51.638 0 0 1 1.777-3.253 61.155 61.155 0 0 1 1.858-2.952 25.31 25.31 0 0 1 1.695-2.269c.528-.62.938-1.02 1.23-1.202.364 0 .83.063 1.394.191.565.128 1.139.292 1.722.492s1.112.41 1.585.629c.474.218.802.437.984.656a57.42 57.42 0 0 0-2.815 3.854 101.973 101.973 0 0 0-2.542 4.072c.729 0 1.467-.018 2.214-.054a49.228 49.228 0 0 0 2.269-.164c.182.182.328.41.437.683.11.273.164.556.164.847-1.786.656-3.954 1.02-6.505 1.094a63.574 63.574 0 0 0-2.433 5.22 58.013 58.013 0 0 0-1.804 5.002 43.62 43.62 0 0 0-1.148 4.538c-.273 1.421-.41 2.697-.41 3.826 0 1.604.601 2.497 1.804 2.679a12.656 12.656 0 0 0 3.116-.82c.984-.4 1.859-.911 2.624-1.53.219.327.346.6.383.82-.219.327-.593.71-1.121 1.147-.528.438-1.102.866-1.722 1.285-.62.42-1.22.774-1.804 1.066-.583.292-1.02.456-1.312.492a8.208 8.208 0 0 1-2.733-.601c-.911-.365-1.74-.82-2.488-1.367-.747-.547-1.357-1.157-1.831-1.831-.474-.675-.71-1.34-.71-1.996 0-.874.118-1.977.355-3.307.237-1.33.574-2.779 1.011-4.346a92.243 92.243 0 0 1 1.53-4.92 85.43 85.43 0 0 1 1.914-5.084h-3.116z" transform="translate(-106)"/>
</svg>
