<svg xmlns="http://www.w3.org/2000/svg" xmlns:xlink="http://www.w3.org/1999/xlink" width="146" height="36" viewBox="0 0 146 36">
    <defs>
        <linearGradient id="c_slot_n_slot_logo" x1="0%" x2="89.28%" y1="0%" y2="100%">
            <stop offset="0%" stop-color="#851DC2"/>
            <stop offset="100%" stop-color="#51E9E7"/>
        </linearGradient>
        <path id="b_slot_n_slot_logo" d="M19.66 12.136c.06.333.104.564.134.691.03.127.044.299.044.514 0 .647-.143 1.25-.428 1.808-.286.558-.674.955-1.166 1.19a5.82 5.82 0 0 0-1.447-1.367 8.598 8.598 0 0 0-1.874-.94 11.702 11.702 0 0 0-2.11-.544 13.328 13.328 0 0 0-2.126-.176c-.689 0-1.333.054-1.933.162-.6.107-1.132.254-1.594.44-.463.186-.827.417-1.093.691a1.315 1.315 0 0 0-.398.94c.059.431.325.867.797 1.308.472.441 1.053.872 1.741 1.293.69.422 1.452.838 2.288 1.25.837.41 1.658.803 2.465 1.175 1.004.47 1.87.906 2.598 1.308.728.401 1.328.842 1.8 1.322.473.48.827 1.024 1.063 1.631.236.608.354 1.342.354 2.204 0 1-.167 1.935-.502 2.807a6.521 6.521 0 0 1-1.46 2.278 6.734 6.734 0 0 1-2.318 1.513c-.905.363-1.919.544-3.04.544-1.102 0-2.293-.167-3.572-.5a17.076 17.076 0 0 1-3.587-1.366c-1.112-.578-2.037-1.244-2.775-1.999C.784 29.56.415 28.761.415 27.918c0-.392.113-.891.339-1.499.226-.607.635-1.244 1.225-1.91.06.588.379 1.283.96 2.087.58.803 1.45 1.547 2.612 2.233 1.082.627 2.199 1.083 3.35 1.367 1.151.284 2.229.426 3.232.426 1.103 0 1.998-.137 2.687-.412.688-.274 1.23-.602 1.623-.984.394-.382.67-.769.827-1.16.157-.393.246-.706.265-.941-.02-.392-.201-.77-.546-1.132-.344-.362-.807-.715-1.387-1.058a22.35 22.35 0 0 0-2.022-1.043 95.37 95.37 0 0 0-2.391-1.058 47.813 47.813 0 0 1-3.203-1.543c-.895-.48-1.633-.97-2.214-1.47-.58-.5-1.003-1.023-1.27-1.572-.265-.548-.398-1.175-.398-1.88 0-1.098.335-2.136 1.004-3.116.67-.98 1.633-1.724 2.893-2.233a8.466 8.466 0 0 1 2.022-.588 13.056 13.056 0 0 1 2.11-.177c1.3 0 2.569.177 3.808.53 1.24.352 2.48.803 3.72 1.351zm1.063 17.928c0-.863.207-2.072.62-3.63.414-1.558.994-3.375 1.742-5.452 1.22-3.31 2.366-6.068 3.439-8.273 1.072-2.204 2.12-3.923 3.144-5.157.236.039.526.137.87.294.345.156.684.328 1.019.514.334.186.634.377.9.573.266.196.438.353.517.47a36.194 36.194 0 0 0-4.044 5.82c-1.161 2.076-2.224 4.456-3.188 7.14-.827 2.313-1.457 4.394-1.89 6.246-.433 1.851-.649 3.394-.649 4.629v.617c0 .078.01.156.03.235a2.32 2.32 0 0 1-.709-.206c-.197-.098-.325-.215-.384-.353-.039-.098-.147-.24-.324-.426a3.42 3.42 0 0 0-.473-.426c-.177-.117-.324-.426-.442-.926a7.368 7.368 0 0 1-.178-1.69zm10.361 2.91c-1.121-.119-2.017-.608-2.686-1.47s-1.003-1.96-1.003-3.292c0-.784.118-1.597.354-2.44.236-.842.57-1.66 1.004-2.453.432-.794.944-1.543 1.534-2.248.59-.706 1.23-1.313 1.92-1.823 1.082-.803 2.095-1.204 3.04-1.204.63.333 1.25 1.028 1.86 2.086.098 0 .186-.005.265-.015.079-.01.167-.014.266-.014 1.043 0 1.564.92 1.564 2.762 0 1.235-.202 2.405-.605 3.512a10.647 10.647 0 0 1-1.683 3.013 10.008 10.008 0 0 1-2.568 2.277 10.215 10.215 0 0 1-3.262 1.308zm1.506-9.258c-.335.45-.65.94-.945 1.469a13.991 13.991 0 0 0-.767 1.602 10.939 10.939 0 0 0-.502 1.557c-.118.5-.177.946-.177 1.337 0 .47.079.921.236 1.352.158.431.335.676.531.735a6.451 6.451 0 0 0 2.436-1.102 7.993 7.993 0 0 0 1.918-2.013 9.978 9.978 0 0 0 1.27-2.733c.305-1.02.457-2.106.457-3.262 0-.51-.03-.911-.088-1.205a2.215 2.215 0 0 0-.295-.764 6.37 6.37 0 0 0-2.318 1.234 12.044 12.044 0 0 0-1.756 1.793zm9.475-3.027c-.098-.118-.186-.368-.265-.75a4.99 4.99 0 0 1-.118-.984 103.66 103.66 0 0 0 2.774.176c.296-.588.615-1.17.96-1.749.344-.578.679-1.107 1.003-1.587.325-.48.63-.886.916-1.22.285-.332.506-.548.664-.646.197 0 .447.034.752.103.305.068.615.157.93.264.315.108.6.22.856.338.256.118.433.235.532.353a30.875 30.875 0 0 0-1.52 2.072c-.424.637-.881 1.367-1.373 2.19a24.645 24.645 0 0 0 2.42-.118c.099.098.177.22.237.367.059.147.088.299.088.456-.964.352-2.135.548-3.513.588-.492.94-.93 1.876-1.313 2.806-.384.93-.709 1.827-.974 2.69a23.365 23.365 0 0 0-.62 2.439c-.148.764-.222 1.45-.222 2.057 0 .862.325 1.342.974 1.44a6.858 6.858 0 0 0 1.683-.441 5.588 5.588 0 0 0 1.417-.823c.118.176.187.323.207.44-.119.177-.32.383-.606.618-.285.235-.595.465-.93.69-.334.226-.659.417-.974.574-.314.157-.55.245-.708.264a4.449 4.449 0 0 1-1.476-.323 6.105 6.105 0 0 1-1.343-.735 4.274 4.274 0 0 1-.989-.984c-.256-.363-.384-.72-.384-1.073 0-.47.064-1.063.192-1.778.128-.715.31-1.494.546-2.336a49.43 49.43 0 0 1 .827-2.645 45.8 45.8 0 0 1 1.033-2.733h-1.683zm18.42 13.489c-1.122-.333-1.88-.651-2.273-.955-.393-.304-.59-.72-.59-1.25 0-.587.138-1.415.413-2.483a51.72 51.72 0 0 1 1.078-3.57c.442-1.313.949-2.684 1.52-4.115.57-1.43 1.151-2.801 1.741-4.114a74.92 74.92 0 0 1 1.727-3.6c.561-1.088 1.058-1.935 1.49-2.542l-.206-1.235c.276 0 .66.069 1.151.206.492.137.99.304 1.491.5.502.195.945.396 1.329.602.383.206.595.377.634.514-.098.47-.177 1.18-.236 2.131a49.18 49.18 0 0 0-.089 3.042c0 2.135.084 4.227.251 6.274a31.9 31.9 0 0 0 1.166 6.245c.315-1.567.655-3.13 1.019-4.687a113.42 113.42 0 0 1 1.136-4.467c.394-1.42.787-2.738 1.181-3.953a51.308 51.308 0 0 1 1.136-3.189c.365-.91.704-1.626 1.019-2.145.315-.52.6-.798.856-.838.216.04.452.123.708.25a4.829 4.829 0 0 1 1.388 1.043c.196.216.354.431.472.647-.63.255-1.255.852-1.874 1.793-.62.94-1.21 2.081-1.772 3.424a47.708 47.708 0 0 0-1.564 4.364 76.097 76.097 0 0 0-1.27 4.629 56.302 56.302 0 0 0-.855 4.217c-.207 1.293-.32 2.331-.34 3.115 0 .04.01.069.03.088a.606.606 0 0 1-.192.03h-.192c-.905 0-1.707-.113-2.406-.338-.698-.226-1.156-.544-1.372-.956a72.11 72.11 0 0 1-1.034-4.76 81.866 81.866 0 0 1-.693-4.585 88.818 88.818 0 0 1-.443-4.629 141.179 141.179 0 0 1-.251-4.893c-.374.588-.768 1.357-1.18 2.307-.414.95-.817 1.993-1.211 3.13a74.057 74.057 0 0 0-2.096 7.259 43.228 43.228 0 0 0-.65 3.394c-.157 1.068-.235 1.994-.235 2.777 0 .412.004.706.014.882.01.177.035.323.074.441zm43.806-22.042c.059.333.103.564.133.691.03.127.044.299.044.514 0 .647-.143 1.25-.428 1.808-.285.558-.674.955-1.166 1.19a5.82 5.82 0 0 0-1.446-1.367 8.598 8.598 0 0 0-1.875-.94 11.702 11.702 0 0 0-2.11-.544 13.328 13.328 0 0 0-2.126-.176c-.689 0-1.333.054-1.933.162-.6.107-1.132.254-1.594.44-.463.186-.827.417-1.092.691a1.315 1.315 0 0 0-.399.94c.06.431.325.867.797 1.308.472.441 1.053.872 1.742 1.293.688.422 1.451.838 2.287 1.25.837.41 1.658.803 2.465 1.175 1.004.47 1.87.906 2.598 1.308.728.401 1.328.842 1.8 1.322.473.48.827 1.024 1.063 1.631.236.608.354 1.342.354 2.204 0 1-.167 1.935-.501 2.807a6.521 6.521 0 0 1-1.462 2.278 6.734 6.734 0 0 1-2.317 1.513c-.905.363-1.919.544-3.04.544-1.102 0-2.293-.167-3.572-.5a17.076 17.076 0 0 1-3.587-1.366c-1.111-.578-2.036-1.244-2.774-1.999-.738-.754-1.107-1.552-1.107-2.395 0-.392.113-.891.34-1.499.225-.607.634-1.244 1.224-1.91.06.588.379 1.283.96 2.087.58.803 1.45 1.547 2.612 2.233 1.082.627 2.2 1.083 3.35 1.367 1.152.284 2.229.426 3.233.426 1.102 0 1.997-.137 2.686-.412.689-.274 1.23-.602 1.623-.984.394-.382.67-.769.827-1.16.157-.393.246-.706.266-.941-.02-.392-.202-.77-.547-1.132-.344-.362-.806-.715-1.387-1.058a22.35 22.35 0 0 0-2.022-1.043 95.37 95.37 0 0 0-2.391-1.058 47.813 47.813 0 0 1-3.203-1.543c-.895-.48-1.633-.97-2.214-1.47-.58-.5-1.003-1.023-1.269-1.572-.266-.548-.398-1.175-.398-1.88 0-1.098.334-2.136 1.003-3.116.67-.98 1.634-1.724 2.893-2.233a8.466 8.466 0 0 1 2.022-.588 13.056 13.056 0 0 1 2.11-.177c1.3 0 2.569.177 3.809.53 1.24.352 2.48.803 3.719 1.351zm1.063 17.928c0-.863.206-2.072.62-3.63.413-1.558.993-3.375 1.741-5.452 1.22-3.31 2.366-6.068 3.439-8.273 1.073-2.204 2.12-3.923 3.144-5.157.236.039.526.137.87.294.345.156.684.328 1.019.514.334.186.635.377.9.573.266.196.438.353.517.47a36.194 36.194 0 0 0-4.044 5.82c-1.161 2.076-2.224 4.456-3.188 7.14-.827 2.313-1.456 4.394-1.89 6.246-.432 1.851-.649 3.394-.649 4.629v.617c0 .078.01.156.03.235a2.32 2.32 0 0 1-.709-.206c-.197-.098-.324-.215-.384-.353-.039-.098-.147-.24-.324-.426a3.42 3.42 0 0 0-.473-.426c-.177-.117-.324-.426-.442-.926a7.368 7.368 0 0 1-.177-1.69zm10.36 2.91c-1.121-.119-2.016-.608-2.686-1.47-.669-.862-1.003-1.96-1.003-3.292 0-.784.118-1.597.354-2.44.236-.842.57-1.66 1.004-2.453.433-.794.944-1.543 1.535-2.248.59-.706 1.23-1.313 1.918-1.823 1.083-.803 2.096-1.204 3.04-1.204.63.333 1.25 1.028 1.86 2.086.099 0 .187-.005.266-.015.079-.01.167-.014.266-.014 1.043 0 1.564.92 1.564 2.762 0 1.235-.201 2.405-.605 3.512a10.647 10.647 0 0 1-1.682 3.013 10.008 10.008 0 0 1-2.569 2.277 10.215 10.215 0 0 1-3.261 1.308zm1.506-9.258c-.334.45-.65.94-.944 1.469a13.991 13.991 0 0 0-.768 1.602 10.94 10.94 0 0 0-.502 1.557c-.118.5-.177.946-.177 1.337 0 .47.079.921.236 1.352.158.431.335.676.532.735a6.451 6.451 0 0 0 2.435-1.102 7.993 7.993 0 0 0 1.919-2.013 9.978 9.978 0 0 0 1.269-2.733c.305-1.02.457-2.106.457-3.262 0-.51-.03-.911-.088-1.205a2.215 2.215 0 0 0-.295-.764 6.37 6.37 0 0 0-2.318 1.234 12.044 12.044 0 0 0-1.756 1.793zm9.476-3.027c-.099-.118-.187-.368-.266-.75a4.99 4.99 0 0 1-.118-.984 103.66 103.66 0 0 0 2.775.176c.295-.588.615-1.17.959-1.749.344-.578.679-1.107 1.004-1.587.324-.48.63-.886.915-1.22.285-.332.506-.548.664-.646.197 0 .448.034.753.103.305.068.615.157.93.264.314.108.6.22.855.338.256.118.433.235.532.353a30.875 30.875 0 0 0-1.52 2.072c-.423.637-.881 1.367-1.373 2.19a24.645 24.645 0 0 0 2.42-.118c.099.098.178.22.237.367s.088.299.088.456c-.964.352-2.135.548-3.512.588-.492.94-.93 1.876-1.314 2.806-.384.93-.709 1.827-.974 2.69a23.365 23.365 0 0 0-.62 2.439c-.148.764-.221 1.45-.221 2.057 0 .862.324 1.342.974 1.44a6.858 6.858 0 0 0 1.682-.441 5.588 5.588 0 0 0 1.417-.823c.118.176.187.323.207.44-.118.177-.32.383-.605.618-.286.235-.596.465-.93.69-.335.226-.66.417-.974.574-.315.157-.551.245-.709.264a4.449 4.449 0 0 1-1.476-.323 6.105 6.105 0 0 1-1.343-.735 4.274 4.274 0 0 1-.989-.984c-.256-.363-.383-.72-.383-1.073 0-.47.063-1.063.191-1.778.128-.715.31-1.494.547-2.336a49.43 49.43 0 0 1 .826-2.645 45.8 45.8 0 0 1 1.033-2.733h-1.682z"/>
        <filter id="a_slot_n_slot_logo" width="113.3%" height="167.6%" x="-6.7%" y="-22.5%" filterUnits="objectBoundingBox">
            <feOffset dy="3" in="SourceAlpha" result="shadowOffsetOuter1"/>
            <feGaussianBlur in="shadowOffsetOuter1" result="shadowBlurOuter1" stdDeviation="2.5"/>
            <feColorMatrix in="shadowBlurOuter1" values="0 0 0 0 0 0 0 0 0 0 0 0 0 0 0 0 0 0 0.5 0"/>
        </filter>
    </defs>
    <g fill="none" fill-rule="evenodd" transform="translate(5 -6)">
        <use fill="#000" filter="url(#a_slot_n_slot_logo)" xlink:href="#b_slot_n_slot_logo"/>
        <use fill="url(#c_slot_n_slot_logo)" xlink:href="#b_slot_n_slot_logo"/>
    </g>
</svg>
