<svg xmlns="http://www.w3.org/2000/svg" xmlns:xlink="http://www.w3.org/1999/xlink" width="280" height="58" viewBox="0 0 280 58">
    <defs>
        <linearGradient id="beta_logo_c" x1="0%" x2="89.28%" y1="0%" y2="100%">
            <stop offset="0%" stop-color="#851EC2"/>
            <stop offset="100%" stop-color="#51E9E7"/>
        </linearGradient>s
        <path id="beta_logo_b" d="M536.638 58.996c.092.521.161.882.207 1.081.046.2.069.468.069.805a6.15 6.15 0 0 1-.667 2.829c-.445.874-1.05 1.495-1.817 1.863a9.086 9.086 0 0 0-2.254-2.139 13.375 13.375 0 0 0-2.921-1.472 18.17 18.17 0 0 0-3.289-.851 20.68 20.68 0 0 0-3.312-.276c-1.073 0-2.078.084-3.013.253-.935.169-1.763.399-2.484.69-.72.291-1.288.652-1.702 1.081-.414.43-.621.92-.621 1.472.092.675.506 1.357 1.242 2.047.736.69 1.64 1.365 2.714 2.024a44.392 44.392 0 0 0 3.565 1.955c1.303.644 2.584 1.257 3.841 1.84a69.678 69.678 0 0 1 4.048 2.047c1.135.629 2.07 1.319 2.806 2.07a7.476 7.476 0 0 1 1.656 2.553c.368.95.552 2.1.552 3.45 0 1.564-.26 3.028-.782 4.393a10.212 10.212 0 0 1-2.277 3.565c-.997 1.012-2.2 1.802-3.611 2.369-1.41.567-2.99.851-4.738.851-1.717 0-3.573-.26-5.566-.782a26.538 26.538 0 0 1-5.589-2.139c-1.733-.905-3.174-1.947-4.324-3.128-1.15-1.18-1.725-2.43-1.725-3.749 0-.613.176-1.395.529-2.346.353-.95.989-1.947 1.909-2.99.092.92.59 2.009 1.495 3.266.905 1.257 2.262 2.423 4.071 3.496a19.846 19.846 0 0 0 5.221 2.139c1.794.445 3.473.667 5.037.667 1.717 0 3.113-.215 4.186-.644 1.073-.43 1.917-.943 2.53-1.541.613-.598 1.043-1.204 1.288-1.817.245-.613.383-1.104.414-1.472-.03-.613-.314-1.204-.851-1.771-.537-.567-1.257-1.12-2.162-1.656a34.773 34.773 0 0 0-3.151-1.633 148.288 148.288 0 0 0-3.726-1.656c-1.932-.859-3.596-1.664-4.991-2.415-1.395-.751-2.545-1.518-3.45-2.3-.905-.782-1.564-1.602-1.978-2.461-.414-.859-.621-1.84-.621-2.944 0-1.717.521-3.343 1.564-4.876 1.043-1.533 2.545-2.699 4.508-3.496.981-.43 2.032-.736 3.151-.92a20.258 20.258 0 0 1 3.289-.276c2.024 0 4.002.276 5.934.828a44.1 44.1 0 0 1 5.796 2.116zm1.656 28.06c0-1.35.322-3.243.966-5.681.644-2.438 1.549-5.282 2.714-8.533 1.901-5.183 3.688-9.499 5.359-12.949 1.671-3.45 3.304-6.141 4.899-8.073.368.061.82.215 1.357.46.537.245 1.066.514 1.587.805.521.291.989.59 1.403.897.414.307.682.552.805.736a56.657 56.657 0 0 0-6.302 9.108c-1.81 3.25-3.465 6.977-4.968 11.178-1.288 3.619-2.27 6.877-2.944 9.775-.675 2.898-1.012 5.313-1.012 7.245v.966c0 .123.015.245.046.368a3.604 3.604 0 0 1-1.104-.322c-.307-.153-.506-.337-.598-.552-.061-.153-.23-.376-.506-.667a5.338 5.338 0 0 0-.736-.667c-.276-.184-.506-.667-.69-1.449-.184-.782-.276-1.664-.276-2.645zm16.146 4.554c-1.748-.184-3.143-.95-4.186-2.3-1.043-1.35-1.564-3.067-1.564-5.152 0-1.227.184-2.5.552-3.818.368-1.319.89-2.599 1.564-3.841a21.57 21.57 0 0 1 2.392-3.519 17.421 17.421 0 0 1 2.99-2.852c1.687-1.257 3.266-1.886 4.738-1.886.981.521 1.947 1.61 2.898 3.266.153 0 .291-.008.414-.023s.26-.023.414-.023c1.625 0 2.438 1.441 2.438 4.324 0 1.932-.314 3.764-.943 5.497a16.685 16.685 0 0 1-2.622 4.715 15.619 15.619 0 0 1-4.002 3.565 15.878 15.878 0 0 1-5.083 2.047zm2.346-14.49a21.117 21.117 0 0 0-1.472 2.3c-.46.828-.859 1.664-1.196 2.507a17.176 17.176 0 0 0-.782 2.438c-.184.782-.276 1.48-.276 2.093 0 .736.123 1.441.368 2.116s.521 1.058.828 1.15a10.033 10.033 0 0 0 3.795-1.725 12.487 12.487 0 0 0 2.99-3.151c.843-1.257 1.503-2.683 1.978-4.278.475-1.595.713-3.297.713-5.106 0-.797-.046-1.426-.138-1.886a3.477 3.477 0 0 0-.46-1.196 9.914 9.914 0 0 0-3.611 1.932 18.813 18.813 0 0 0-2.737 2.806zm14.766-4.738c-.153-.184-.291-.575-.414-1.173-.123-.598-.184-1.112-.184-1.541a160.832 160.832 0 0 0 4.324.276c.46-.92.958-1.832 1.495-2.737a51.458 51.458 0 0 1 1.564-2.484c.506-.751.981-1.388 1.426-1.909.445-.521.79-.859 1.035-1.012.307 0 .698.054 1.173.161.475.107.958.245 1.449.414.49.169.935.345 1.334.529.399.184.675.368.828.552a48.317 48.317 0 0 0-2.369 3.243 85.804 85.804 0 0 0-2.139 3.427c.613 0 1.234-.015 1.863-.046.629-.03 1.265-.077 1.909-.138.153.153.276.345.368.575.092.23.138.468.138.713-1.503.552-3.327.859-5.474.92a53.496 53.496 0 0 0-2.047 4.393 48.816 48.816 0 0 0-1.518 4.209 36.704 36.704 0 0 0-.966 3.818c-.23 1.196-.345 2.27-.345 3.22 0 1.35.506 2.1 1.518 2.254a10.65 10.65 0 0 0 2.622-.69 8.7 8.7 0 0 0 2.208-1.288c.184.276.291.506.322.69-.184.276-.498.598-.943.966-.445.368-.928.728-1.449 1.081s-1.027.652-1.518.897c-.49.245-.859.383-1.104.414a6.906 6.906 0 0 1-2.3-.506 9.501 9.501 0 0 1-2.093-1.15 6.676 6.676 0 0 1-1.541-1.541c-.399-.567-.598-1.127-.598-1.679 0-.736.1-1.664.299-2.783.2-1.12.483-2.338.851-3.657a77.619 77.619 0 0 1 1.288-4.14 71.886 71.886 0 0 1 1.61-4.278h-2.622zm28.704 21.114c-1.748-.521-2.929-1.02-3.542-1.495-.613-.475-.92-1.127-.92-1.955 0-.92.215-2.216.644-3.887.43-1.671.989-3.534 1.679-5.589.69-2.055 1.48-4.201 2.369-6.44.89-2.239 1.794-4.385 2.714-6.44.92-2.055 1.817-3.933 2.691-5.635.874-1.702 1.648-3.028 2.323-3.979l-.322-1.932c.43 0 1.027.107 1.794.322.767.215 1.541.475 2.323.782.782.307 1.472.621 2.07.943.598.322.928.59.989.805-.153.736-.276 1.848-.368 3.335a77.316 77.316 0 0 0-.138 4.761c0 3.343.13 6.616.391 9.821.26 3.205.866 6.463 1.817 9.775.49-2.453 1.02-4.899 1.587-7.337a178.17 178.17 0 0 1 1.771-6.992 151.128 151.128 0 0 1 1.84-6.187 80.542 80.542 0 0 1 1.771-4.991c.567-1.426 1.096-2.545 1.587-3.358.49-.813.935-1.25 1.334-1.311.337.061.705.192 1.104.391a7.52 7.52 0 0 1 2.162 1.633c.307.337.552.675.736 1.012-.981.399-1.955 1.334-2.921 2.806-.966 1.472-1.886 3.258-2.76 5.359a74.89 74.89 0 0 0-2.438 6.831 119.525 119.525 0 0 0-1.978 7.245 88.468 88.468 0 0 0-1.334 6.601c-.322 2.024-.498 3.65-.529 4.876 0 .061.015.107.046.138a.94.94 0 0 1-.299.046h-.299c-1.41 0-2.66-.176-3.749-.529-1.089-.353-1.802-.851-2.139-1.495a113.3 113.3 0 0 1-1.61-7.452c-.43-2.392-.79-4.784-1.081-7.176a139.617 139.617 0 0 1-.69-7.245 221.942 221.942 0 0 1-.391-7.659c-.583.92-1.196 2.124-1.84 3.611a68.846 68.846 0 0 0-1.886 4.899 116.288 116.288 0 0 0-1.771 5.612 106.56 106.56 0 0 0-1.495 5.75 67.93 67.93 0 0 0-1.012 5.313c-.245 1.671-.368 3.12-.368 4.347 0 .644.008 1.104.023 1.38.015.276.054.506.115.69zm68.264-34.5c.092.521.161.882.207 1.081.046.2.069.468.069.805a6.15 6.15 0 0 1-.667 2.829c-.445.874-1.05 1.495-1.817 1.863a9.086 9.086 0 0 0-2.254-2.139 13.375 13.375 0 0 0-2.921-1.472 18.17 18.17 0 0 0-3.289-.851 20.68 20.68 0 0 0-3.312-.276c-1.073 0-2.078.084-3.013.253-.935.169-1.763.399-2.484.69-.72.291-1.288.652-1.702 1.081-.414.43-.621.92-.621 1.472.092.675.506 1.357 1.242 2.047.736.69 1.64 1.365 2.714 2.024a44.392 44.392 0 0 0 3.565 1.955c1.303.644 2.584 1.257 3.841 1.84a69.678 69.678 0 0 1 4.048 2.047c1.135.629 2.07 1.319 2.806 2.07a7.476 7.476 0 0 1 1.656 2.553c.368.95.552 2.1.552 3.45 0 1.564-.26 3.028-.782 4.393a10.212 10.212 0 0 1-2.277 3.565c-.997 1.012-2.2 1.802-3.611 2.369-1.41.567-2.99.851-4.738.851-1.717 0-3.573-.26-5.566-.782a26.538 26.538 0 0 1-5.589-2.139c-1.733-.905-3.174-1.947-4.324-3.128-1.15-1.18-1.725-2.43-1.725-3.749 0-.613.176-1.395.529-2.346.353-.95.989-1.947 1.909-2.99.092.92.59 2.009 1.495 3.266.905 1.257 2.262 2.423 4.071 3.496a19.846 19.846 0 0 0 5.221 2.139c1.794.445 3.473.667 5.037.667 1.717 0 3.113-.215 4.186-.644 1.073-.43 1.917-.943 2.53-1.541.613-.598 1.043-1.204 1.288-1.817.245-.613.383-1.104.414-1.472-.03-.613-.314-1.204-.851-1.771-.537-.567-1.257-1.12-2.162-1.656a34.773 34.773 0 0 0-3.151-1.633 148.288 148.288 0 0 0-3.726-1.656c-1.932-.859-3.596-1.664-4.991-2.415-1.395-.751-2.545-1.518-3.45-2.3-.905-.782-1.564-1.602-1.978-2.461-.414-.859-.621-1.84-.621-2.944 0-1.717.521-3.343 1.564-4.876 1.043-1.533 2.545-2.699 4.508-3.496.981-.43 2.032-.736 3.151-.92a20.258 20.258 0 0 1 3.289-.276c2.024 0 4.002.276 5.934.828a44.1 44.1 0 0 1 5.796 2.116zm1.656 28.06c0-1.35.322-3.243.966-5.681.644-2.438 1.549-5.282 2.714-8.533 1.901-5.183 3.688-9.499 5.359-12.949 1.671-3.45 3.304-6.141 4.899-8.073.368.061.82.215 1.357.46.537.245 1.066.514 1.587.805.521.291.989.59 1.403.897.414.307.682.552.805.736a56.657 56.657 0 0 0-6.302 9.108c-1.81 3.25-3.465 6.977-4.968 11.178-1.288 3.619-2.27 6.877-2.944 9.775-.675 2.898-1.012 5.313-1.012 7.245v.966c0 .123.015.245.046.368a3.604 3.604 0 0 1-1.104-.322c-.307-.153-.506-.337-.598-.552-.061-.153-.23-.376-.506-.667a5.338 5.338 0 0 0-.736-.667c-.276-.184-.506-.667-.69-1.449-.184-.782-.276-1.664-.276-2.645zm16.146 4.554c-1.748-.184-3.143-.95-4.186-2.3-1.043-1.35-1.564-3.067-1.564-5.152 0-1.227.184-2.5.552-3.818.368-1.319.89-2.599 1.564-3.841a21.57 21.57 0 0 1 2.392-3.519 17.421 17.421 0 0 1 2.99-2.852c1.687-1.257 3.266-1.886 4.738-1.886.981.521 1.947 1.61 2.898 3.266.153 0 .291-.008.414-.023s.26-.023.414-.023c1.625 0 2.438 1.441 2.438 4.324 0 1.932-.314 3.764-.943 5.497a16.685 16.685 0 0 1-2.622 4.715 15.619 15.619 0 0 1-4.002 3.565 15.878 15.878 0 0 1-5.083 2.047zm65.734-31.546c-.064.992-.24 1.844-.528 2.556a5.576 5.576 0 0 1-1.236 1.872 8.947 8.947 0 0 1-1.956 1.452c-.768.432-1.664.848-2.688 1.248 0 .096-.004.196-.012.3a4.583 4.583 0 0 0 .036.972c.032.224.088.432.168.624.08.192.192.348.336.468.144.12.328.18.552.18.432 0 .856-.096 1.272-.288a6.654 6.654 0 0 0 1.188-.708c.376-.28.728-.584 1.056-.912.328-.328.62-.628.876-.9.16.144.296.28.408.408-.72.96-1.508 1.756-2.364 2.388-.856.632-1.668 1.036-2.436 1.212-1.104-.128-1.964-.532-2.58-1.212-.616-.68-.924-1.5-.924-2.46 0-.656.092-1.324.276-2.004.184-.68.44-1.336.768-1.968a11.35 11.35 0 0 1 1.152-1.788c.44-.56.912-1.048 1.416-1.464a6.86 6.86 0 0 1 1.56-.984 3.88 3.88 0 0 1 1.596-.36c.736.096 1.424.552 2.064 1.368zM688.668 77.12a18.813 18.813 0 0 1 2.737-2.806 9.914 9.914 0 0 1 3.611-1.932c.215.337.368.736.46 1.196.092.46.138 1.089.138 1.886 0 1.81-.238 3.511-.713 5.106-.475 1.595-1.135 3.02-1.978 4.278a12.487 12.487 0 0 1-2.99 3.151 10.033 10.033 0 0 1-3.795 1.725c-.307-.092-.583-.475-.828-1.15a6.144 6.144 0 0 1-.368-2.116c0-.613.092-1.311.276-2.093.184-.782.445-1.595.782-2.438.337-.843.736-1.679 1.196-2.507.46-.828.95-1.595 1.472-2.3zm54.292-20.344c0 .992-.272 1.876-.816 2.652-.544.776-1.288 1.42-2.232 1.932a4.876 4.876 0 0 1 1.452 1.524c.36.6.54 1.26.54 1.98 0 .864-.26 1.716-.78 2.556-.52.84-1.212 1.584-2.076 2.232a11.297 11.297 0 0 1-2.952 1.572c-1.104.4-2.232.6-3.384.6-1.248 0-2.34-.236-3.276-.708a5.324 5.324 0 0 1-2.196-2.004c.16-.48.372-1.076.636-1.788s.556-1.464.876-2.256c.32-.792.644-1.58.972-2.364.328-.784.636-1.488.924-2.112a54.07 54.07 0 0 1 1.632-3.384c.48-.896.92-1.608 1.32-2.136-.88.272-1.68.58-2.4.924-.72.344-1.248.676-1.584.996a2.02 2.02 0 0 1-.444-.432 5.521 5.521 0 0 1-.432-.636 4.383 4.383 0 0 1-.336-.708 2.518 2.518 0 0 1-.156-.648c.416-.288.956-.564 1.62-.828a16.51 16.51 0 0 1 2.172-.684 23.36 23.36 0 0 1 2.412-.456 17.57 17.57 0 0 1 2.364-.168c1.92 0 3.424.384 4.512 1.152 1.088.768 1.632 1.832 1.632 3.192zm-39.526 15.606c-.153-.184-.291-.575-.414-1.173-.123-.598-.184-1.112-.184-1.541a160.832 160.832 0 0 0 4.324.276c.46-.92.958-1.832 1.495-2.737a51.458 51.458 0 0 1 1.564-2.484c.506-.751.981-1.388 1.426-1.909.445-.521.79-.859 1.035-1.012.307 0 .698.054 1.173.161.475.107.958.245 1.449.414.49.169.935.345 1.334.529.399.184.675.368.828.552a48.317 48.317 0 0 0-2.369 3.243 85.804 85.804 0 0 0-2.139 3.427c.613 0 1.234-.015 1.863-.046.629-.03 1.265-.077 1.909-.138.153.153.276.345.368.575.092.23.138.468.138.713-1.503.552-3.327.859-5.474.92a53.496 53.496 0 0 0-2.047 4.393 48.816 48.816 0 0 0-1.518 4.209 36.704 36.704 0 0 0-.966 3.818c-.23 1.196-.345 2.27-.345 3.22 0 1.35.506 2.1 1.518 2.254a10.65 10.65 0 0 0 2.622-.69 8.7 8.7 0 0 0 2.208-1.288c.184.276.291.506.322.69-.184.276-.498.598-.943.966-.445.368-.928.728-1.449 1.081s-1.027.652-1.518.897c-.49.245-.859.383-1.104.414a6.906 6.906 0 0 1-2.3-.506 9.501 9.501 0 0 1-2.093-1.15 6.676 6.676 0 0 1-1.541-1.541c-.399-.567-.598-1.127-.598-1.679 0-.736.1-1.664.299-2.783.2-1.12.483-2.338.851-3.657a77.619 77.619 0 0 1 1.288-4.14 71.886 71.886 0 0 1 1.61-4.278h-2.622zm30.382-9.87c.16.032.3.048.42.048h.516c1.568 0 2.976-.256 4.224-.768.912.464 1.368 1.224 1.368 2.28 0 .736-.224 1.44-.672 2.112-.448.672-1.048 1.268-1.8 1.788s-1.624.932-2.616 1.236c-.992.304-2.032.456-3.12.456-.464 0-.852-.032-1.164-.096a2.713 2.713 0 0 1-.804-.288c.016-.224.104-.584.264-1.08.16-.496.368-1.08.624-1.752.256-.672.548-1.4.876-2.184.328-.784.676-1.584 1.044-2.4.256.288.536.504.84.648zm4.656-8.328c1.152 0 2.032.196 2.64.588.608.392.912.972.912 1.74 0 .448-.12.872-.36 1.272s-.584.764-1.032 1.092c-.448.328-.98.616-1.596.864a9.924 9.924 0 0 1-2.076.564 7.673 7.673 0 0 0-1.2-.096c-.384 0-.772.02-1.164.06-.392.04-.724.092-.996.156.288-.624.572-1.232.852-1.824a43.999 43.999 0 0 1 1.5-2.904 8.16 8.16 0 0 1 .528-.84 1.993 1.993 0 0 0-.108-.228.923.923 0 0 0-.156-.204c.416-.08.812-.14 1.188-.18.376-.04.732-.06 1.068-.06zm11.928 6.672c-.064 1.104-.52 2.124-1.368 3.06-.848.936-1.912 1.724-3.192 2.364a9.68 9.68 0 0 1 1.908-3.744c.408-.48.844-.864 1.308-1.152.464-.288.912-.464 1.344-.528zm4.008-.048c-.08-.096-.152-.3-.216-.612a4.093 4.093 0 0 1-.096-.804 83.912 83.912 0 0 0 2.256.144c.24-.48.5-.956.78-1.428s.552-.904.816-1.296c.264-.392.512-.724.744-.996.232-.272.412-.448.54-.528.16 0 .364.028.612.084.248.056.5.128.756.216s.488.18.696.276c.208.096.352.192.432.288-.48.608-.892 1.172-1.236 1.692s-.716 1.116-1.116 1.788a19.95 19.95 0 0 0 1.968-.096.993.993 0 0 1 .264.672c-.784.288-1.736.448-2.856.48-.4.768-.756 1.532-1.068 2.292-.312.76-.576 1.492-.792 2.196a19.15 19.15 0 0 0-.504 1.992 8.99 8.99 0 0 0-.18 1.68c0 .704.264 1.096.792 1.176.48-.064.936-.184 1.368-.36.432-.176.816-.4 1.152-.672a.997.997 0 0 1 .168.36c-.096.144-.26.312-.492.504-.232.192-.484.38-.756.564-.272.184-.536.34-.792.468s-.448.2-.576.216c-.4-.016-.8-.104-1.2-.264-.4-.16-.764-.36-1.092-.6a3.483 3.483 0 0 1-.804-.804c-.208-.296-.312-.588-.312-.876 0-.384.052-.868.156-1.452.104-.584.252-1.22.444-1.908a40.497 40.497 0 0 1 1.512-4.392h-1.368zm15.312-.504c.16 0 .348.028.564.084.216.056.412.128.588.216s.324.18.444.276c.12.096.18.184.18.264-.32.672-.616 1.348-.888 2.028-.272.68-.504 1.332-.696 1.956a16.57 16.57 0 0 0-.444 1.752 7.687 7.687 0 0 0-.156 1.416c0 .448.048.82.144 1.116.096.296.256.508.48.636-.192.128-.44.232-.744.312-.304.08-.576.12-.816.12-.864 0-1.296-.592-1.296-1.776 0-.912.304-2.16.912-3.744-.32.736-.688 1.428-1.104 2.076a14.71 14.71 0 0 1-1.272 1.716c-.432.496-.868.9-1.308 1.212-.44.312-.844.5-1.212.564-.592-.032-1.072-.316-1.44-.852-.368-.536-.552-1.22-.552-2.052 0-.896.192-1.84.576-2.832.384-.992.876-1.912 1.476-2.76.6-.848 1.252-1.556 1.956-2.124.704-.568 1.384-.868 2.04-.9.16.048.34.144.54.288a4.192 4.192 0 0 1 1.044 1.092c.128.2.2.372.216.516-.64.096-1.3.408-1.98.936a9.752 9.752 0 0 0-1.848 1.908 11.201 11.201 0 0 0-1.356 2.388c-.352.848-.528 1.64-.528 2.376 0 .304.112.496.336.576.464-.096 1-.492 1.608-1.188.608-.696 1.344-1.772 2.208-3.228.16-.288.34-.608.54-.96a62.332 62.332 0 0 0 1.224-2.268c.2-.392.388-.772.564-1.14z"/>
        <filter id="beta_logo_a" width="110.6%" height="167.2%" x="-5.3%" y="-24%" filterUnits="objectBoundingBox">
            <feOffset dy="4" in="SourceAlpha" result="shadowOffsetOuter1"/>
            <feGaussianBlur in="shadowOffsetOuter1" result="shadowBlurOuter1" stdDeviation="4"/>
            <feColorMatrix in="shadowBlurOuter1" values="0 0 0 0 0 0 0 0 0 0 0 0 0 0 0 0 0 0 0.5 0"/>
        </filter>
    </defs>
    <g fill="none" fill-rule="evenodd" transform="translate(-499 -48)">
        <use fill="#000" filter="url(#beta_logo_a)" xlink:href="#beta_logo_b"/>
        <use fill="url(#beta_logo_c)" xlink:href="#beta_logo_b"/>
    </g>
</svg>
