<svg xmlns="http://www.w3.org/2000/svg" width="80" height="81" viewBox="0 0 80 81">
    <g fill="none" fill-rule="evenodd">
        <ellipse cx="40" cy="40.099" fill="#4D4C61" rx="40" ry="40.099"/>
        <g fill-rule="nonzero">
            <path fill="#ECECEC" d="M31.257 55.615c-1.248 0-1.036-.472-1.467-1.664L26.12 41.838l28.26-16.807"/>
            <path fill="#D6D6D6" d="M31.257 55.615c.964 0 1.39-.441 1.927-.966l5.138-5.008-6.409-3.875"/>
            <path fill="#FFF" d="M31.912 45.767l15.53 11.503c1.773.98 3.052.472 3.494-1.65l6.321-29.864c.648-2.601-.989-3.781-2.684-3.01l-37.121 14.35c-2.534 1.019-2.52 2.436-.462 3.067l9.526 2.98L48.57 29.197c1.041-.633 1.997-.293 1.212.405"/>
        </g>
    </g>
</svg>
