<?xml version="1.0" encoding="UTF-8"?>
<svg width="100px" height="100px" viewBox="0 0 100 100" version="1.1" xmlns="http://www.w3.org/2000/svg" xmlns:xlink="http://www.w3.org/1999/xlink">
    <!-- Generator: Sketch 44.1 (41455) - http://www.bohemiancoding.com/sketch -->
    <title>Twitter</title>
    <desc>Created with Sketch.</desc>
    <defs></defs>
    <g id="TWITTER_Page-1" stroke="none" stroke-width="1" fill="none" fill-rule="evenodd">
        <g id="TWITTER_Zepline---HOME" transform="translate(-1701.000000, -1040.000000)">
            <g id="TWITTER_Twitter" transform="translate(1701.000000, 1040.000000)">
                <circle id="TWITTER_Oval-1" fill="#4D4C61" cx="50" cy="50" r="50"></circle>
                <path d="M72.9030476,30.8759048 C71.4917778,31.779873 68.2515238,33.0934603 66.6535238,33.0934603 L66.6535238,33.0961587 C64.8288571,31.19 62.2599683,30 59.4109841,30 C53.877619,30 49.3906984,34.4869206 49.3906984,40.018127 C49.3906984,40.7866349 49.479746,41.536254 49.6443492,42.2551111 L49.6427302,42.2551111 C42.1368254,42.058127 33.9277143,38.296 28.9858413,31.8570476 C25.9474286,37.116254 28.5767619,42.9653333 32.0247937,45.0965397 C30.8445079,45.1855873 28.671746,44.9605397 27.6490476,43.9626667 C27.5805079,47.4533333 29.2589206,52.0784127 35.3789206,53.7562857 C34.200254,54.3904127 32.1138413,54.2085397 31.2066349,54.073619 C31.5250476,57.0202857 35.6514603,60.8725397 40.163746,60.8725397 C38.5554921,62.7328254 32.5045714,66.1069206 25.7142857,65.0334921 C30.325873,67.8393016 35.7005714,69.4642857 41.3893651,69.4642857 C57.5555556,69.4642857 70.1101905,56.3624127 69.4345079,40.1994603 C69.4318095,40.1816508 69.4318095,40.1638413 69.4301905,40.1444127 C69.4318095,40.1028571 69.4345079,40.0613016 69.4345079,40.018127 C69.4345079,39.9679365 69.4301905,39.9204444 69.4285714,39.871873 C70.9002857,38.8653651 72.8749841,37.0849524 74.2857143,34.7416508 C73.4675556,35.1922857 71.0130794,36.0946349 68.7291429,36.3186032 C70.1949206,35.5274286 72.3666032,32.9364127 72.9030476,30.8759048" id="TWITTER_Fill-1" fill="#FFFFFF"></path>
            </g>
        </g>
    </g>
</svg>
